<?xml version="1.0" standalone="no"?>
<!DOCTYPE svg PUBLIC "-//W3C//DTD SVG 20010904//EN"
 "http://www.w3.org/TR/2001/REC-SVG-20010904/DTD/svg10.dtd">
<svg version="1.0" xmlns="http://www.w3.org/2000/svg"
 width="1024.000000pt" height="1024.000000pt" viewBox="0 0 1024.000000 1024.000000"
 preserveAspectRatio="xMidYMid meet">
<metadata>
Created by potrace 1.14, written by Peter Selinger 2001-2017
</metadata>
<g transform="translate(0.000000,1024.000000) scale(0.100000,-0.100000)"
fill="#000000" stroke="none">
<path d="M8493 8563 c-6 -17 -231 -251 -518 -538 -75 -75 -136 -127 -162 -139
-24 -10 -43 -22 -43 -26 0 -4 -33 -22 -72 -39 -40 -18 -82 -37 -93 -42 -45
-20 -203 -71 -245 -79 -25 -5 -142 -18 -260 -30 -118 -11 -246 -25 -285 -30
-38 -6 -126 -17 -195 -25 -182 -21 -690 -99 -720 -111 -8 -3 -55 -14 -105 -24
-81 -16 -149 -32 -395 -90 -41 -10 -129 -32 -195 -50 -66 -17 -153 -40 -193
-50 -39 -11 -105 -28 -145 -39 -208 -56 -279 -74 -347 -91 -41 -10 -120 -30
-175 -45 -188 -50 -405 -104 -680 -170 -38 -9 -90 -23 -115 -30 -25 -7 -80
-20 -122 -30 -43 -9 -80 -20 -83 -24 -2 -5 -172 -92 -377 -194 -530 -264 -847
-456 -1183 -716 -239 -185 -534 -460 -729 -681 -55 -63 -103 -117 -106 -120
-12 -11 -197 -248 -234 -297 -196 -271 -336 -561 -383 -793 -22 -110 -26 -334
-7 -455 15 -103 68 -326 85 -356 5 -10 9 -26 9 -37 0 -10 11 -39 23 -63 13
-24 27 -56 30 -70 5 -21 81 -117 169 -213 10 -10 15 -24 11 -29 -3 -6 -1 -7 5
-4 13 9 64 -51 56 -65 -4 -6 -3 -8 3 -5 9 6 112 -90 113 -105 0 -5 2 -7 5 -5
9 4 204 -197 199 -205 -3 -5 -1 -7 4 -6 15 5 173 -133 165 -144 -3 -6 -2 -8 4
-5 9 6 39 -13 92 -61 l26 -23 -25 12 c-20 9 -23 9 -13 -1 6 -7 22 -13 35 -14
15 -1 23 -7 22 -18 -1 -9 5 -19 13 -22 8 -3 11 -1 8 4 -9 14 7 12 28 -4 10 -8
16 -19 15 -26 -2 -7 4 -15 12 -17 13 -4 13 -3 0 6 -10 8 -11 11 -2 11 7 0 17
-11 24 -24 6 -14 18 -28 26 -31 12 -4 11 0 -4 16 -20 24 -8 19 39 -15 15 -11
25 -26 22 -34 -3 -9 1 -12 13 -8 9 3 24 1 32 -5 13 -9 12 -10 -3 -5 -11 4 -16
2 -11 -5 3 -6 15 -9 25 -6 11 3 29 -4 42 -15 l22 -20 -27 16 c-16 9 -28 12
-28 6 0 -5 5 -10 11 -10 5 0 8 -4 5 -8 -4 -8 2 -9 56 -14 15 -2 33 -9 40 -17
11 -11 9 -12 -12 -7 -21 6 -22 5 -7 -4 9 -6 22 -8 28 -5 17 11 71 -16 65 -32
-4 -11 -1 -13 14 -8 15 5 18 3 14 -8 -6 -16 22 -31 31 -17 4 6 1 10 -6 10 -7
0 -10 2 -7 5 3 3 27 -6 53 -20 26 -14 54 -25 62 -25 10 0 11 -5 4 -17 -8 -15
-2 -19 41 -30 61 -16 75 -11 18 6 -22 6 -40 17 -40 23 0 7 4 7 13 1 6 -5 35
-18 62 -28 54 -19 89 -43 45 -30 -39 11 -42 11 -47 -4 -4 -9 0 -11 15 -7 24 8
111 -30 119 -51 3 -9 9 -10 17 -4 15 12 78 2 69 -12 -4 -6 4 -8 21 -5 18 4 26
1 26 -8 0 -8 9 -15 20 -15 39 -3 80 -18 80 -29 0 -5 7 -7 15 -4 8 4 21 2 28
-4 20 -16 61 -26 53 -13 -5 7 4 11 24 11 17 0 29 -4 25 -10 -3 -5 -13 -6 -23
-3 -9 3 -14 3 -10 -2 4 -4 22 -9 40 -11 18 -2 44 -8 58 -14 36 -14 179 -40
222 -40 20 0 49 -5 65 -11 15 -6 72 -11 125 -12 54 -1 98 -5 98 -9 0 -10 409
-9 615 2 88 4 239 17 335 28 96 12 206 23 243 27 38 3 83 13 99 21 17 9 42 14
57 11 15 -3 45 -1 67 4 21 5 102 21 179 35 77 14 160 29 185 34 183 37 288 61
302 70 10 5 31 10 46 10 16 0 32 3 36 7 3 4 17 8 29 10 51 8 203 46 212 54 5
5 23 9 40 9 17 0 35 4 40 9 11 10 131 41 158 41 9 0 17 5 17 11 0 6 6 9 12 7
7 -3 18 1 24 7 7 6 26 10 43 9 17 -1 31 2 31 7 0 5 8 9 18 9 10 0 38 6 63 14
24 8 71 22 104 31 33 10 74 23 90 31 17 7 52 18 78 23 48 11 119 36 149 52 10
5 48 17 85 28 72 20 118 36 171 58 18 8 58 21 90 29 31 8 59 19 60 24 2 6 14
10 27 10 13 0 27 4 30 10 3 5 37 19 76 31 38 11 72 25 75 30 3 5 15 9 28 9 12
0 26 4 32 9 9 10 120 53 182 72 17 6 32 13 32 18 0 4 23 14 50 21 28 8 56 20
62 27 6 7 19 13 28 13 10 0 42 12 72 26 29 14 67 32 83 39 136 63 164 75 174
75 6 0 11 5 11 10 0 6 6 10 14 10 15 0 458 218 466 230 3 3 12 9 20 13 8 4 22
11 30 17 8 5 26 14 40 20 14 5 43 21 65 35 22 14 56 33 75 42 19 10 64 39 99
65 35 27 69 48 76 48 7 0 24 11 39 25 15 14 33 25 40 25 7 0 21 9 31 20 10 11
24 20 32 20 7 0 13 6 13 13 0 6 13 18 29 25 16 7 42 24 57 38 16 14 48 39 72
55 23 17 42 34 42 38 0 5 18 20 40 35 44 29 276 259 318 315 15 20 29 38 32
41 4 3 16 22 29 43 12 20 27 37 32 37 5 0 18 18 29 40 11 22 24 40 28 40 4 0
12 8 17 19 34 64 59 107 64 111 8 6 46 86 61 128 7 17 16 32 21 32 5 0 9 5 9
12 0 12 39 117 66 176 8 18 10 31 4 27 -14 -9 -12 5 3 24 15 18 42 105 53 166
3 22 19 94 35 160 17 74 32 177 39 270 7 83 16 154 21 160 12 12 12 75 -1 75
-5 0 -10 19 -9 43 0 32 2 37 9 22 5 -11 9 -15 9 -9 1 6 -6 28 -14 47 -8 20
-15 54 -15 76 0 46 -9 73 -21 65 -5 -3 -9 14 -9 37 0 53 -6 48 -13 -9 -8 -74
-17 -59 -17 29 0 172 -31 263 -103 308 -43 26 -81 27 -150 1 -30 -11 -63 -18
-73 -14 -13 4 -15 3 -7 -3 16 -11 -42 -48 -59 -37 -7 5 -8 3 -3 -6 6 -10 4
-12 -9 -7 -9 4 -15 3 -12 -2 6 -9 -35 -41 -51 -41 -4 0 -1 5 7 10 30 20 -12
10 -49 -11 -20 -11 -26 -13 -14 -4 18 14 20 21 13 41 -6 15 -6 24 0 24 6 0 10
17 10 38 0 26 6 41 20 50 11 7 20 8 20 3 0 -5 -6 -11 -12 -14 -7 -2 -9 -8 -5
-13 5 -5 13 -1 19 10 10 17 28 36 60 62 7 6 19 9 26 6 6 -2 12 1 12 6 0 5 9
12 21 15 13 4 18 10 14 17 -5 8 -1 10 12 6 12 -4 27 1 39 13 11 10 30 24 42
30 18 10 21 9 15 -5 -5 -14 -3 -15 15 -5 12 7 22 14 22 17 0 3 -5 2 -12 -2 -7
-4 -8 -3 -4 4 4 7 14 12 22 12 8 0 14 4 14 9 0 9 60 37 73 33 4 -1 6 4 5 10
-2 7 9 14 24 16 14 2 32 11 40 20 11 13 11 14 -1 7 -10 -5 -12 -4 -7 4 4 6 11
9 16 6 4 -3 13 2 20 10 7 8 17 12 23 8 6 -3 7 -1 3 6 -4 6 0 14 8 17 9 3 16
12 16 20 0 7 11 21 25 30 22 14 62 82 70 119 2 11 9 30 33 85 8 19 16 46 18
60 11 66 24 508 19 605 -8 134 -31 245 -51 245 -8 0 -14 9 -13 23 0 21 1 21 9
2 7 -16 9 -13 9 18 1 20 -3 37 -9 37 -5 0 -10 -5 -10 -12 0 -9 -3 -8 -12 1
-11 11 -10 14 0 18 10 4 10 8 1 19 -6 8 -8 14 -5 14 4 0 0 10 -8 22 -9 12 -16
32 -16 44 0 30 -27 52 -33 27 -2 -10 -3 3 -1 30 1 26 -1 47 -5 47 -5 0 -11 13
-14 29 -3 16 -13 31 -21 34 -13 5 -13 2 -5 -21 6 -14 15 -32 21 -39 6 -8 8
-16 5 -20 -6 -6 -58 99 -56 113 0 4 -3 10 -8 13 -15 10 -53 78 -47 84 3 3 -1
18 -10 34 -8 15 -15 24 -16 20 0 -5 5 -17 10 -28 19 -35 4 -20 -43 45 -26 36
-46 70 -45 78 2 7 -2 12 -9 11 -11 -2 -69 62 -72 80 0 4 -3 7 -7 6 -10 -1
-169 155 -166 163 1 5 -2 6 -8 3 -7 -4 -21 2 -33 13 -12 11 -57 42 -99 69 -43
28 -75 53 -70 58 4 5 1 5 -6 1 -7 -4 -32 2 -55 13 -123 59 -308 103 -510 121
-137 12 -137 12 -144 -7z m57 -76 c0 -2 -17 -19 -37 -38 -20 -18 -31 -25 -23
-14 20 26 60 61 60 52z m117 -4 c-20 -2 -52 -2 -70 0 -17 2 0 4 38 4 39 0 53
-2 32 -4z m111 -10 c-10 -2 -28 -2 -40 0 -13 2 -5 4 17 4 22 1 32 -1 23 -4z
m-70 -19 c47 7 39 -9 -10 -21 -24 -6 -50 -12 -58 -15 -8 -3 -12 -3 -7 -1 4 3
7 11 7 19 0 10 -14 14 -51 14 -27 0 -48 4 -45 8 3 5 34 5 68 0 35 -5 78 -7 96
-4z m139 5 c-10 -6 -25 -8 -33 -5 -8 3 -14 0 -14 -6 0 -6 -3 -9 -6 -5 -13 12
9 27 39 27 27 -1 29 -2 14 -11z m150 -35 c-6 -6 -126 19 -122 26 2 4 31 0 65
-8 33 -8 59 -16 57 -18z m-439 -19 c-3 -3 -9 2 -12 12 -6 14 -5 15 5 6 7 -7
10 -15 7 -18z m242 17 c0 -5 15 -7 33 -6 l32 3 -30 -8 c-47 -13 -62 -12 -62 4
0 8 6 15 14 15 7 0 13 -4 13 -8z m107 -10 c17 -14 18 -19 7 -30 -15 -14 -28
-16 -20 -3 3 5 -1 11 -9 15 -8 3 -15 1 -15 -4 0 -6 -9 -10 -20 -10 -11 0 -20
4 -20 10 0 5 6 7 14 4 8 -3 17 0 21 5 3 6 11 8 17 5 7 -5 9 -1 5 9 -8 21 -5
21 20 -1z m133 4 c0 -2 -7 -7 -16 -10 -8 -3 -12 -2 -9 4 6 10 25 14 25 6z
m-530 -17 c0 -8 6 -7 18 2 15 13 16 12 4 -3 -8 -9 -20 -14 -28 -11 -16 6 -19
23 -4 23 6 0 10 -5 10 -11z m-55 -9 c-3 -5 -12 -10 -18 -10 -7 0 -6 4 3 10 19
12 23 12 15 0z m120 0 c-4 -6 -1 -17 5 -25 14 -17 35 -21 25 -5 -3 6 -2 10 4
10 17 0 21 -18 5 -24 -40 -15 -121 1 -100 21 5 4 11 2 13 -4 3 -7 17 -13 31
-13 l27 0 -25 21 c-14 11 -20 18 -13 15 6 -4 14 -2 18 4 3 5 8 10 11 10 3 0 2
-5 -1 -10z m138 -2 c-6 -10 -35 -10 -51 0 -8 5 1 8 22 8 19 -1 32 -4 29 -8z
m62 2 c13 -5 14 -9 5 -9 -8 0 -24 4 -35 9 -13 5 -14 9 -5 9 8 0 24 -4 35 -9z
m-285 -20 c0 -5 -2 -10 -4 -10 -3 0 -8 5 -11 10 -3 6 -1 10 4 10 6 0 11 -4 11
-10z m335 0 c3 -5 1 -10 -4 -10 -6 0 -11 5 -11 10 0 6 2 10 4 10 3 0 8 -4 11
-10z m240 0 c-3 -5 -11 -10 -16 -10 -6 0 -7 5 -4 10 3 6 11 10 16 10 6 0 7 -4
4 -10z m90 -11 c28 -19 28 -20 5 -13 -23 6 -24 6 -10 -12 11 -15 11 -16 0 -6
-23 20 -42 15 -35 -10 6 -19 5 -21 -6 -10 -16 15 -18 42 -4 59 13 16 15 16 50
-8z m-279 3 c-3 -5 14 -8 38 -7 26 0 43 -3 43 -10 0 -7 -13 -12 -29 -12 -19 0
-25 3 -16 9 9 6 5 8 -12 7 -14 -1 -34 -1 -45 0 l-20 2 20 9 c26 11 27 11 21 2z
m187 -46 c-3 -4 -9 -3 -13 4 -4 6 -10 11 -14 11 -21 -3 -28 2 -11 8 20 8 47
-8 38 -23z m150 1 c-5 -8 -8 -7 -11 1 -2 7 -9 9 -14 6 -7 -4 -8 -2 -4 4 4 6
13 9 21 6 8 -4 12 -11 8 -17z m-210 -11 c17 -13 16 -14 -2 -19 -13 -3 -18 -1
-15 8 3 7 -3 15 -13 18 -12 3 -13 5 -3 6 8 0 23 -6 33 -13z m231 -8 c-5 -8 -2
-9 10 -5 11 5 15 3 10 -5 -5 -8 -2 -9 10 -5 10 4 15 3 11 -3 -3 -5 -17 -9 -30
-8 -13 1 -21 7 -18 12 4 5 -2 7 -13 3 -18 -7 -18 -7 0 8 24 18 30 19 20 3z
m-129 -8 c4 -6 10 -8 14 -5 11 6 102 -25 97 -34 -9 -14 11 -30 41 -33 26 -2
32 -7 35 -30 4 -22 2 -25 -9 -17 -7 6 -10 16 -6 22 3 5 1 7 -4 4 -17 -11 -81
21 -88 43 -4 14 -15 20 -35 20 -26 0 -89 39 -63 40 6 0 15 -5 18 -10z m-761
-91 c14 -34 31 -92 36 -129 5 -37 12 -75 16 -84 8 -20 -3 -20 -49 -1 -50 21
-137 19 -195 -4 -26 -11 -70 -22 -98 -27 l-49 -7 50 54 c27 30 68 74 90 99
101 112 149 160 160 160 7 0 24 -27 39 -61z m971 41 c3 0 3 5 -1 11 -4 8 0 8
15 0 24 -13 28 -23 6 -15 -9 4 -18 -2 -24 -17 -8 -20 -10 -21 -10 -5 -1 10 -9
25 -18 33 -16 13 -16 13 4 4 12 -6 24 -11 28 -11z m-172 -18 c-2 -7 2 -12 7
-12 6 0 10 5 10 10 0 6 5 10 11 10 8 0 8 -4 0 -14 -8 -9 -8 -16 -2 -20 5 -4 9
-15 8 -26 -1 -14 -4 -16 -14 -9 -7 6 -11 16 -10 22 1 6 -2 12 -8 12 -5 1 -20
4 -32 9 -19 6 -20 10 -10 21 14 17 43 14 40 -3z m229 -22 c-2 -7 3 -10 11 -7
9 3 36 -17 68 -51 30 -31 48 -52 40 -45 -7 6 -19 9 -26 7 -7 -3 -16 0 -20 6
-5 8 -15 4 -34 -12 l-26 -23 23 26 22 26 -20 18 c-24 22 -38 14 -15 -9 9 -9
12 -16 6 -16 -13 0 -32 35 -29 51 2 6 -5 13 -14 14 -10 2 -18 -1 -18 -7 0 -6
8 -7 18 -3 13 5 14 4 5 -6 -9 -9 -16 -9 -26 -1 -8 7 -16 11 -18 9 -2 -1 2 4
10 11 8 6 22 12 30 12 14 0 14 2 1 11 -13 9 -13 10 0 6 8 -2 14 -10 12 -17z
m-174 -21 c-3 -8 -7 -3 -11 10 -4 17 -3 21 5 13 5 -5 8 -16 6 -23z m61 -35 c3
-3 -1 -10 -7 -16 -9 -9 -12 -9 -12 1 0 7 -4 9 -10 6 -5 -3 -10 -1 -10 5 0 7
-7 10 -15 6 -8 -3 -15 -1 -15 5 0 10 58 3 69 -7z m18 -6 c-3 -8 -6 -5 -6 6 -1
11 2 17 5 13 3 -3 4 -12 1 -19z m113 -32 c0 -2 -7 -9 -15 -16 -13 -11 -14 -10
-9 4 5 14 24 23 24 12z m-117 -34 c-5 -13 -4 -15 8 -6 20 15 59 15 64 1 2 -7
6 -25 10 -40 5 -24 4 -26 -8 -16 -8 8 -12 21 -10 30 6 20 -13 34 -23 18 -4 -8
-3 -9 4 -5 7 4 12 3 12 -3 0 -5 -5 -13 -11 -16 -6 -4 -8 -13 -5 -21 8 -22 -2
-17 -15 7 -7 13 -7 19 -1 15 6 -4 10 2 9 14 -1 23 -8 25 -24 9 -8 -8 -14 -6
-22 9 -11 20 -5 36 10 26 4 -2 5 -12 2 -22z m171 20 c3 -5 -1 -9 -9 -9 -8 0
-12 4 -9 9 3 4 7 8 9 8 2 0 6 -4 9 -8z m97 -39 c13 -16 12 -17 -3 -4 -10 7
-18 15 -18 17 0 8 8 3 21 -13z m16 -48 c4 -4 2 -5 -4 -1 -7 4 -13 2 -13 -4 0
-6 -4 -8 -10 -5 -5 3 -10 10 -10 15 0 10 27 7 37 -5z m-18 -41 c1 11 3 17 6
14 7 -7 -5 -58 -14 -58 -3 0 -7 15 -8 33 -1 26 0 28 7 12 8 -19 9 -19 9 -1z
m-994 -39 c50 -14 100 -30 113 -36 13 -5 42 -9 66 -9 61 0 149 -18 157 -32 4
-7 11 -46 14 -88 10 -102 39 -190 75 -225 34 -33 37 -55 14 -91 -23 -34 -22
-93 0 -127 22 -32 62 -54 161 -87 75 -26 105 -45 105 -67 0 -8 22 -36 49 -62
38 -37 52 -60 66 -106 9 -33 27 -80 40 -104 l23 -44 -34 -66 c-34 -66 -74
-202 -74 -254 0 -23 -74 -169 -351 -692 -39 -75 -37 -73 -149 -95 -25 -5 -65
-16 -89 -24 -24 -9 -46 -14 -49 -12 -2 3 1 19 7 37 21 62 8 143 -25 156 -9 3
-32 -2 -51 -11 -20 -9 -38 -14 -41 -11 -3 3 -14 51 -24 107 -17 95 -17 103 -1
120 16 18 16 20 -3 39 -27 27 -196 69 -304 76 -75 5 -91 3 -129 -17 -24 -12
-54 -33 -67 -47 l-24 -26 -25 27 c-46 49 -95 30 -132 -52 -36 -81 -42 -171
-15 -225 11 -23 32 -67 45 -98 28 -64 36 -71 92 -79 l40 -7 -65 -31 c-72 -34
-150 -51 -150 -32 0 6 10 30 21 53 49 96 21 163 -79 187 -50 12 -64 20 -73 41
-18 46 -63 81 -92 74 -48 -12 -68 -48 -148 -262 -13 -35 -28 -63 -33 -63 -5 0
-32 17 -60 38 -71 54 -94 65 -122 58 -31 -8 -62 -58 -70 -113 -6 -39 -7 -41
-31 -32 -13 5 -45 9 -70 9 l-45 0 6 38 c3 20 10 57 15 82 15 66 13 176 -3 215
-15 36 -59 65 -99 65 -33 0 -127 -39 -156 -64 -13 -12 -36 -39 -51 -61 -31
-45 -100 -206 -100 -234 0 -37 -23 -82 -49 -95 -32 -17 -61 -5 -61 25 0 13
-12 25 -35 35 l-36 15 32 60 c25 47 30 65 22 77 -37 60 -198 -34 -290 -170
-38 -55 -206 -172 -263 -182 -19 -3 -107 -13 -195 -21 -88 -8 -179 -18 -202
-21 -39 -6 -43 -5 -43 15 0 31 27 53 113 94 42 20 93 47 114 60 21 13 49 28
63 32 76 23 170 81 235 144 113 109 128 117 220 123 64 4 98 13 170 43 50 22
113 53 140 69 43 27 60 31 120 31 60 0 82 5 151 38 85 39 244 77 409 97 77 10
224 31 465 69 30 5 56 8 57 7 2 -1 -3 -17 -9 -34 -11 -27 -10 -34 5 -49 15
-16 18 -16 37 2 11 10 25 37 31 59 22 77 51 151 67 169 9 10 70 52 137 94 131
82 232 172 272 243 46 81 54 91 63 85 12 -7 -40 -104 -99 -184 -80 -109 -111
-203 -78 -243 24 -30 106 -81 121 -75 31 12 19 55 -24 83 -46 31 -49 46 -17
112 45 94 87 133 101 97 9 -23 49 -34 90 -25 51 11 159 83 237 157 46 45 76
65 104 71 46 9 65 33 46 56 -30 35 -109 4 -188 -73 -44 -44 -73 -62 -73 -47 0
2 27 37 61 78 38 46 84 87 122 111 l62 38 40 -44 c38 -43 72 -67 93 -67 6 0
33 18 61 40 28 22 58 40 68 40 32 0 82 -38 103 -79 56 -111 130 -74 130 66 0
56 -8 73 -35 73 -26 0 -35 -17 -35 -63 l-1 -32 -27 32 c-15 18 -51 43 -81 57
-60 28 -77 25 -143 -26 -36 -27 -68 -37 -68 -20 0 5 -18 28 -39 51 -36 39 -43
42 -73 36 -56 -12 -159 -89 -227 -170 -82 -96 -165 -175 -185 -175 -21 0 -20
7 10 63 38 73 95 254 101 323 7 78 -12 119 -63 133 -21 6 -45 6 -59 1 -51 -19
-89 -106 -67 -154 16 -35 -8 -139 -53 -231 -56 -112 -129 -186 -261 -265 -138
-83 -203 -145 -229 -222 -17 -52 -20 -56 -36 -43 -14 13 -30 14 -114 5 -53 -6
-108 -15 -121 -20 -13 -5 -87 -16 -166 -25 -79 -9 -150 -18 -158 -21 -8 -3
-62 -14 -120 -24 -166 -29 -195 -37 -259 -69 -67 -34 -141 -51 -141 -32 0 7
10 52 22 99 15 58 23 117 23 177 0 86 -2 93 -37 156 -21 36 -45 72 -54 80 -20
17 -101 140 -116 178 -6 14 -12 42 -14 61 -2 19 -5 44 -6 55 -2 14 19 36 82
82 47 34 114 89 150 123 119 111 167 145 220 159 70 18 183 96 249 171 56 64
189 158 254 179 23 8 52 30 74 57 21 24 41 44 46 44 5 0 23 6 40 14 127 56
151 66 155 61 3 -3 -1 -31 -9 -62 -21 -87 -18 -229 6 -283 32 -74 102 -166
139 -184 44 -21 111 -20 216 3 187 42 304 96 381 177 90 95 125 197 100 290
-12 46 -29 71 -118 176 -35 40 -63 76 -63 80 0 4 10 3 23 -2 12 -5 63 -20 112
-35z m1122 -29 c15 -31 15 -31 -5 -11 -10 11 -18 23 -15 28 2 4 -1 7 -6 7 -6
0 -11 -5 -11 -11 0 -5 -5 -7 -11 -3 -8 5 -8 9 1 14 8 5 9 13 4 21 -6 11 -4 11
10 0 9 -8 24 -28 33 -45z m-14 -40 c3 10 4 0 3 -23 -2 -43 -15 -71 -18 -37 0
10 -2 26 -2 34 -1 8 -8 15 -16 14 -9 -1 -16 9 -17 25 l-1 26 23 -29 c21 -26
24 -27 28 -10z m-299 16 c3 -5 -1 -9 -9 -9 -8 0 -12 4 -9 9 3 4 7 8 9 8 2 0 6
-4 9 -8z m345 -53 c-5 -10 -12 -19 -15 -19 -2 0 0 8 5 18 7 13 6 23 -2 32 -10
12 -9 12 5 1 14 -10 15 -18 7 -32z m-369 27 c0 -3 -4 -8 -10 -11 -5 -3 -10 -1
-10 4 0 6 5 11 10 11 6 0 10 -2 10 -4z m87 -11 c0 -8 -4 -15 -9 -15 -10 0 -11
14 -1 23 9 10 10 9 10 -8z m-65 -7 c-8 -8 -8 -17 -1 -32 10 -20 10 -20 -5 -2
-12 14 -13 23 -5 33 6 7 14 13 17 13 3 0 1 -5 -6 -12z m387 -63 c1 -5 -10 -11
-24 -12 -23 -2 -24 0 -10 13 17 17 21 39 5 29 -6 -4 -7 1 -3 11 5 14 8 13 19
-7 6 -13 13 -28 13 -34z m-301 3 c-2 -15 -9 -22 -21 -22 -20 2 -22 -7 -4 -25
9 -11 9 -12 0 -7 -7 4 -17 16 -23 26 -9 16 -7 18 14 14 20 -3 23 -1 19 16 -3
12 0 20 7 20 6 0 10 -10 8 -22z m82 -18 c0 -5 -2 -10 -4 -10 -3 0 -8 5 -11 10
-3 6 -1 10 4 10 6 0 11 -4 11 -10z m242 -46 c-6 -12 -9 -7 -9 16 0 23 3 28 9
16 5 -9 5 -23 0 -32z m-22 16 c0 -5 -7 -7 -15 -4 -8 4 -22 1 -30 -6 -15 -12
-22 0 -8 13 10 11 53 8 53 -3z m-7 -27 c3 -5 -9 -9 -26 -10 -26 -1 -28 0 -12
7 26 11 33 12 38 3z m57 3 c0 -3 -4 -8 -10 -11 -5 -3 -10 -1 -10 4 0 6 5 11
10 11 6 0 10 -2 10 -4z m-341 -21 c5 2 6 -7 3 -21 -5 -30 -7 -28 -15 11 -4 17
-4 24 -1 17 3 -6 9 -10 13 -7z m35 -10 c-4 -8 -8 -15 -10 -15 -2 0 -4 7 -4 15
0 8 4 15 10 15 5 0 7 -7 4 -15z m76 -4 c0 -6 -4 -13 -10 -16 -5 -3 -10 1 -10
9 0 9 5 16 10 16 6 0 10 -4 10 -9z m240 -1 c0 -5 -2 -10 -4 -10 -3 0 -8 5 -11
10 -3 6 -1 10 4 10 6 0 11 -4 11 -10z m-293 -87 c-5 -7 -6 -17 -2 -23 3 -5 1
-10 -4 -10 -6 0 -11 2 -11 4 0 2 -3 12 -7 22 -5 13 -3 15 7 9 10 -6 12 -4 7 9
-4 10 -4 30 0 44 7 27 7 26 13 -8 3 -19 2 -40 -3 -47z m279 38 c1 -14 -1 -20
-3 -13 -3 6 -9 10 -13 7 -5 -3 -8 3 -7 13 2 28 22 22 23 -7z m-2456 2 c0 -5
-26 -24 -57 -42 -32 -19 -89 -68 -127 -108 -82 -87 -170 -149 -226 -158 -24
-4 -59 -21 -83 -41 -23 -18 -67 -51 -98 -73 -31 -22 -63 -51 -72 -65 -9 -14
-70 -65 -134 -113 -65 -48 -165 -125 -223 -172 -58 -46 -141 -108 -185 -137
-44 -29 -109 -78 -145 -109 -145 -126 -310 -238 -310 -211 0 26 -38 47 -112
61 -118 22 -150 5 -192 -101 -42 -105 -31 -253 21 -282 15 -9 12 -16 -28 -64
-72 -84 -141 -177 -192 -256 -46 -71 -48 -73 -69 -57 -12 8 -32 15 -43 15 -11
0 -33 7 -49 15 -58 31 -120 13 -142 -41 -20 -47 -12 -76 31 -116 19 -17 35
-37 35 -45 0 -7 9 -18 20 -25 29 -18 25 -30 -25 -84 -25 -27 -50 -64 -57 -81
-14 -39 -21 -40 -62 -10 -17 13 -70 47 -117 76 -61 36 -122 87 -203 168 -64
64 -116 117 -116 119 0 1 24 10 53 20 53 17 291 160 320 192 30 33 47 90 49
170 2 78 1 81 -48 168 -67 122 -91 134 -264 134 -70 0 -153 -5 -186 -11 -82
-14 -204 -64 -249 -102 -41 -34 -95 -136 -116 -222 -6 -28 -13 -51 -14 -53 -4
-5 -190 86 -240 119 -99 63 -171 113 -209 146 -22 18 -44 33 -48 33 -5 0 -50
24 -101 54 -120 70 -375 201 -407 209 -16 4 -21 10 -15 16 10 10 276 143 401
201 38 18 76 38 84 45 8 7 47 20 85 28 99 22 234 55 274 67 33 9 37 8 63 -24
59 -71 211 -68 242 5 l12 29 26 -39 26 -40 -61 -34 c-34 -19 -84 -46 -112 -60
-27 -14 -76 -49 -107 -79 -82 -78 -81 -94 20 -200 103 -108 166 -137 230 -104
16 8 59 19 97 25 331 48 463 88 531 158 45 48 82 143 100 259 17 108 17 108
-5 150 -27 51 -54 64 -132 64 -77 0 -113 -16 -174 -77 -39 -39 -61 -52 -94
-58 -23 -4 -45 -4 -48 -1 -4 3 1 22 10 41 24 49 22 63 -14 96 -18 16 -30 31
-28 33 2 2 33 11 69 19 36 9 90 23 120 31 75 21 84 20 118 -14 34 -33 80 -39
157 -19 22 5 86 18 142 28 133 24 257 82 296 138 15 22 27 44 27 50 0 11 59
30 195 62 111 26 110 26 135 1 23 -23 57 -26 95 -8 21 9 26 17 22 36 -3 18 1
26 20 33 39 15 70 11 75 -9 10 -36 175 -132 227 -132 38 0 60 28 97 124 29 77
44 95 44 52 0 -85 35 -127 91 -107 35 12 175 115 181 133 3 8 17 2 41 -16 48
-37 97 -39 133 -5 30 28 63 89 57 106 -3 7 13 14 44 18 26 3 82 10 123 15 41
6 149 17 239 25 91 9 166 17 168 18 7 8 93 7 93 0z m2139 -35 c1 -5 -3 -8 -9
-8 -5 0 -10 12 -9 28 0 24 1 25 9 7 5 -11 9 -23 9 -27z m341 -5 c-11 -17 -11
-17 -6 0 3 10 6 24 7 30 0 9 2 9 5 0 3 -7 0 -20 -6 -30z m116 -10 c-10 -10
-19 5 -10 18 6 11 8 11 12 0 2 -7 1 -15 -2 -18z m-86 -8 c0 -8 -2 -15 -4 -15
-2 0 -6 7 -10 15 -3 8 -1 15 4 15 6 0 10 -7 10 -15z m-40 -27 c0 -5 -4 -8 -10
-8 -5 0 -10 10 -10 23 0 18 2 19 10 7 5 -8 10 -18 10 -22z m137 -10 c-3 -7 -5
-2 -5 12 0 14 2 19 5 13 2 -7 2 -19 0 -25z m-438 -40 c1 6 5 12 10 12 6 0 5
-13 -1 -32 l-11 -32 -13 45 c-18 57 -17 86 1 34 7 -22 13 -34 14 -27z m81 26
c0 -8 -4 -14 -10 -14 -5 0 -10 9 -10 21 0 11 5 17 10 14 6 -3 10 -13 10 -21z
m279 -41 c1 -13 -2 -23 -6 -23 -5 0 -9 21 -9 48 -1 36 0 41 6 22 4 -14 8 -35
9 -47z m88 0 c-3 -10 -5 -4 -5 12 0 17 2 24 5 18 2 -7 2 -21 0 -30z m-172 -13
c3 -5 1 -10 -4 -10 -6 0 -11 5 -11 10 0 6 2 10 4 10 3 0 8 -4 11 -10z m182
-57 c-3 -10 -5 -4 -5 12 0 17 2 24 5 18 2 -7 2 -21 0 -30z m-442 3 c0 -15 -4
-21 -9 -16 -5 5 -6 16 -3 24 9 22 12 20 12 -8z m332 -8 c-3 -7 -5 -2 -5 12 0
14 2 19 5 13 2 -7 2 -19 0 -25z m33 7 c0 -8 -4 -17 -10 -20 -6 -4 -10 5 -10
20 0 15 4 24 10 20 6 -3 10 -12 10 -20z m-282 -50 c1 -14 -3 -25 -8 -25 -6 0
-10 11 -10 25 0 14 4 25 8 25 4 0 9 -11 10 -25z m-60 -60 c0 -16 -2 -15 -8 5
-4 14 -8 36 -8 50 0 22 1 22 8 -5 4 -16 8 -39 8 -50z m352 -98 c0 -73 -4 -137
-8 -144 -4 -6 -7 56 -7 137 0 81 3 146 8 143 4 -2 7 -64 7 -136z m-313 91 c-3
-7 -5 -2 -5 12 0 14 2 19 5 13 2 -7 2 -19 0 -25z m420 10 c-3 -8 -6 -5 -6 6
-1 11 2 17 5 13 3 -3 4 -12 1 -19z m-147 -212 c-8 -8 -10 -3 -6 19 2 17 6 66
7 110 l3 80 3 -99 c3 -63 0 -103 -7 -110z m-295 174 c3 -5 1 -10 -4 -10 -6 0
-11 5 -11 10 0 6 2 10 4 10 3 0 8 -4 11 -10z m42 -20 c-2 -27 -3 -28 -14 -13
-8 10 -13 12 -13 4 0 -7 -4 -9 -10 -6 -6 4 -5 11 3 19 9 10 14 11 19 2 5 -7 8
-5 8 7 0 9 2 17 5 17 2 0 3 -14 2 -30z m380 -17 c-3 -10 -5 -4 -5 12 0 17 2
24 5 18 2 -7 2 -21 0 -30z m-186 4 c-1 -12 -15 -9 -19 4 -3 6 1 10 8 8 6 -3
11 -8 11 -12z m-200 -32 c5 4 6 -1 2 -10 -5 -13 -7 -14 -14 -3 -5 7 -8 18 -8
23 0 6 3 4 6 -3 2 -6 9 -10 14 -7z m66 1 c-3 -7 0 -19 6 -25 6 -6 8 -13 5 -17
-9 -8 -30 35 -23 46 9 15 18 12 12 -4z m20 -8 c-3 -8 -6 -5 -6 6 -1 11 2 17 5
13 3 -3 4 -12 1 -19z m120 -95 c-2 -21 -4 -4 -4 37 0 41 2 58 4 38 2 -21 2
-55 0 -75z m180 50 c-3 -10 -5 -2 -5 17 0 19 2 27 5 18 2 -10 2 -26 0 -35z
m-357 15 c0 7 4 10 10 7 6 -4 5 -11 -2 -19 -13 -14 -40 2 -31 18 3 4 9 2 14
-5 7 -11 9 -11 9 -1z m35 -58 c-10 -11 -20 -18 -23 -16 -5 6 21 35 32 36 5 0
1 -9 -9 -20z m75 -24 c0 -13 -6 -23 -15 -23 -15 0 -21 37 -9 50 11 11 24 -3
24 -27z m77 -58 c-3 -7 -5 -2 -5 12 0 14 2 19 5 13 2 -7 2 -19 0 -25z m64 -85
c-8 -14 -10 -9 -10 27 1 42 1 43 10 18 7 -18 7 -33 0 -45z m-193 32 c-3 -3 -9
2 -12 12 -6 14 -5 15 5 6 7 -7 10 -15 7 -18z m-43 -5 c-4 -13 -2 -20 5 -18 7
2 15 -4 17 -12 4 -13 3 -13 -6 0 -10 13 -11 13 -11 0 0 -12 -2 -13 -9 -1 -6
10 -13 2 -27 -28 -10 -22 -20 -38 -23 -36 -2 3 -14 -3 -26 -12 -11 -10 -8 -6
7 10 16 15 26 27 23 27 -2 0 7 16 20 36 14 20 25 41 25 45 0 5 3 9 6 9 3 0 2
-9 -1 -20z m322 -12 c-3 -8 -6 -5 -6 6 -1 11 2 17 5 13 3 -3 4 -12 1 -19z
m-277 -39 c0 -11 -4 -18 -10 -14 -5 3 -7 12 -3 20 7 21 13 19 13 -6z m177 -76
c-2 -16 -4 -5 -4 22 0 28 2 40 4 28 2 -13 2 -35 0 -50z m-22 47 c-3 -5 -10
-10 -16 -10 -5 0 -9 5 -9 10 0 6 7 10 16 10 8 0 12 -4 9 -10z m112 -57 c-3
-10 -5 -2 -5 17 0 19 2 27 5 18 2 -10 2 -26 0 -35z m-356 4 c-10 -9 -11 -8 -5
6 3 10 9 15 12 12 3 -3 0 -11 -7 -18z m-84 -11 c-11 -8 -15 -20 -11 -32 5 -16
4 -16 -5 -4 -8 11 -11 12 -11 2 0 -16 25 -43 33 -36 3 3 4 -2 3 -12 -5 -30
-23 -27 -35 7 -6 18 -11 36 -11 40 0 11 37 49 48 49 4 0 -1 -7 -11 -14z m338
-24 c7 -19 -3 -32 -20 -26 -8 3 -11 12 -7 22 5 15 4 15 -12 3 -11 -10 -15 -22
-12 -37 7 -27 -27 -54 -40 -32 -4 6 -3 8 3 5 6 -4 17 1 24 10 12 14 12 16 -2
11 -10 -4 -16 -1 -16 8 0 8 2 12 5 9 3 -2 13 6 23 19 20 26 45 30 54 8z m-375
-111 c0 -21 -16 -2 -25 29 -7 24 -7 24 9 5 8 -11 16 -27 16 -34z m160 34 c0
-8 -7 -15 -15 -15 -16 0 -20 12 -8 23 11 12 23 8 23 -8z m98 -3 c-9 -11 -13
-11 -19 0 -7 10 -9 10 -9 1 0 -7 -4 -13 -8 -13 -5 0 -9 6 -9 13 0 7 12 13 28
12 21 0 25 -3 17 -13z m-178 -2 c-20 -13 -33 -13 -25 0 3 6 14 10 23 10 15 0
15 -2 2 -10z m326 -54 c-7 -61 -35 -133 -72 -187 -59 -86 -281 -225 -398 -249
-30 -6 -81 -10 -113 -8 l-59 3 66 125 67 125 49 7 c121 18 264 86 394 187 36
28 67 51 69 51 2 0 1 -24 -3 -54z m-424 2 c5 -11 5 -18 -1 -18 -5 0 -12 8 -14
18 -3 9 -5 2 -6 -15 -1 -34 -21 -47 -21 -15 0 25 24 74 29 59 2 -7 8 -20 13
-29z m288 38 c0 -2 -8 -10 -17 -17 -16 -13 -17 -12 -4 4 13 16 21 21 21 13z
m217 -28 c-3 -7 -5 -2 -5 12 0 14 2 19 5 13 2 -7 2 -19 0 -25z m-292 12 c-3
-5 -12 -10 -18 -10 -7 0 -6 4 3 10 19 12 23 12 15 0z m-98 -36 c-3 -3 -12 -4
-19 -1 -8 3 -5 6 6 6 11 1 17 -2 13 -5z m9 -20 c-22 -13 -31 -13 -40 -3 -6 6
-6 10 -1 7 6 -3 19 -2 30 3 34 13 41 9 11 -7z m44 -9 c-14 -8 -29 -14 -35 -14
-5 0 1 6 15 14 14 8 30 14 35 14 6 0 -1 -6 -15 -14z m-92 -20 c-3 -3 -9 2 -12
12 -6 14 -5 15 5 6 7 -7 10 -15 7 -18z m-36 -7 c-6 -6 -16 -7 -22 -3 -9 6 -9
9 1 16 17 10 34 0 21 -13z m455 0 c-3 -8 -6 -5 -6 6 -1 11 2 17 5 13 3 -3 4
-12 1 -19z m-540 -10 c-3 -8 -6 -5 -6 6 -1 11 2 17 5 13 3 -3 4 -12 1 -19z
m93 -11 c-19 -5 -46 -13 -59 -18 -13 -5 -26 -7 -29 -4 -4 3 4 8 16 12 12 3 20
8 18 12 -2 3 17 6 42 7 l47 0 -35 -9z m-6357 -213 c89 -48 174 -95 189 -105
14 -11 30 -19 35 -19 9 0 31 -15 124 -85 81 -62 177 -119 317 -192 70 -36 143
-77 162 -92 19 -15 73 -49 120 -75 82 -47 295 -200 320 -231 7 -9 10 -18 7
-21 -9 -9 -38 3 -100 40 -73 44 -135 65 -169 55 -95 -26 -258 -195 -258 -268
0 -28 36 -50 96 -58 27 -3 69 -15 94 -25 59 -25 43 -33 -80 -43 -52 -3 -132
-15 -178 -26 -104 -24 -222 -26 -222 -4 0 26 -50 138 -72 162 -37 40 -277 105
-388 106 -161 1 -358 -81 -483 -202 -55 -52 -137 -177 -137 -208 0 -18 -9 -21
-92 -27 -113 -8 -183 -8 -190 0 -4 3 5 29 18 57 51 110 33 122 -256 177 -58
11 -136 27 -175 36 -45 10 -101 14 -157 12 -75 -4 -96 -9 -160 -40 -144 -72
-251 -195 -271 -314 -11 -62 -12 -64 -47 -70 -19 -4 -42 -10 -50 -14 -27 -14
-140 -23 -140 -11 0 6 29 59 64 118 35 59 79 137 98 172 31 61 36 65 83 78 28
7 83 18 123 24 101 14 200 77 187 119 -4 13 -2 20 7 20 8 0 54 20 102 45 85
43 90 44 147 36 50 -7 64 -5 95 13 46 27 69 65 60 100 -5 21 -20 33 -59 51
-29 13 -69 27 -90 30 -31 6 -36 10 -25 22 20 25 66 43 154 63 47 10 94 26 105
36 23 20 25 53 4 80 -21 28 -19 32 27 39 56 10 108 60 108 104 0 35 -38 81
-66 81 -16 0 -16 1 0 19 10 11 31 25 47 31 25 11 32 10 47 -3 28 -26 104 -49
139 -42 21 4 45 22 78 61 59 69 107 93 216 110 102 15 190 54 269 118 30 24
56 45 58 45 1 1 76 -38 165 -85z m2523 -228 c-16 -37 -35 -49 -98 -59 -45 -7
-48 4 -9 32 16 12 49 51 73 89 l43 67 3 -47 c2 -25 -4 -62 -12 -82z m215 -116
c21 -20 77 -56 124 -80 72 -36 83 -45 68 -53 -10 -5 -52 -42 -93 -82 -70 -67
-116 -95 -211 -130 -19 -7 -60 -28 -90 -47 -29 -20 -65 -39 -79 -43 -14 -4
-51 -23 -84 -43 -61 -37 -93 -85 -81 -123 5 -14 2 -19 -13 -19 -17 0 -19 4
-12 28 5 15 13 43 17 62 7 26 27 50 80 95 155 130 230 284 192 394 -6 17 -15
31 -20 31 -5 0 -9 5 -9 11 0 6 7 8 16 5 8 -3 13 -2 10 3 -3 5 1 14 9 21 17 14
41 79 50 135 l7 39 41 -84 c23 -46 58 -100 78 -120z m3787 -177 c-10 -2 -26
-2 -35 0 -10 3 -2 5 17 5 19 0 27 -2 18 -5z m-374 -19 c3 -8 2 -12 -4 -9 -6 3
-10 10 -10 16 0 14 7 11 14 -7z m316 6 c12 -7 10 -9 -8 -7 -12 0 -22 5 -22 9
0 11 12 10 30 -2z m98 -15 c-3 -3 -9 2 -12 12 -6 14 -5 15 5 6 7 -7 10 -15 7
-18z m-138 5 c0 -5 -5 -10 -11 -10 -5 0 -7 5 -4 10 3 6 8 10 11 10 2 0 4 -4 4
-10z m118 -21 c14 0 13 -2 -3 -9 -27 -12 -43 -12 -25 0 13 8 12 10 -2 10 -18
0 -23 11 -11 24 4 3 11 0 15 -9 5 -8 17 -15 26 -16z m-145 4 c3 -5 -6 -9 -20
-10 -19 -1 -22 1 -12 8 17 11 26 11 32 2z m71 -13 c-22 -9 -29 -6 -20 9 4 6
14 7 23 4 15 -6 14 -7 -3 -13z m103 -12 c-3 -8 -6 -5 -6 6 -1 11 2 17 5 13 3
-3 4 -12 1 -19z m-197 -45 c0 -13 -3 -23 -7 -23 -5 0 -8 16 -9 35 0 22 3 31 8
23 4 -7 8 -23 8 -35z m-67 18 c-9 -11 -21 -17 -26 -14 -5 3 -13 -1 -18 -8 -6
-10 -9 -10 -9 -2 0 7 12 19 28 27 37 21 45 20 25 -3z m253 -38 c-11 -11 -26
10 -26 35 l0 27 15 -29 c9 -16 13 -31 11 -33z m26 18 c2 -17 1 -28 -4 -25 -4
3 -8 0 -8 -5 0 -6 -5 -11 -12 -11 -9 0 -9 3 0 12 7 7 12 22 12 35 0 32 7 29
12 -6z m-241 4 c8 5 5 -1 -6 -12 -11 -11 -26 -20 -34 -20 -11 0 -11 2 1 11 8
6 13 18 11 26 -4 12 -3 13 5 1 6 -8 15 -10 23 -6z m-314 -21 c-3 -3 -12 -4
-19 -1 -8 3 -5 6 6 6 11 1 17 -2 13 -5z m-287 -12 c0 -5 -11 -14 -24 -20 -13
-6 -53 -38 -90 -72 -70 -66 -94 -117 -80 -169 4 -14 6 -66 5 -116 l-1 -90 -72
-143 c-53 -105 -77 -144 -92 -147 -209 -41 -366 -65 -428 -64 -87 1 -139 -18
-157 -57 -17 -39 -13 -58 20 -90 30 -29 31 -29 142 -28 62 0 156 4 210 9 111
9 117 4 68 -55 l-29 -35 -149 0 c-160 0 -176 -4 -187 -51 -10 -40 11 -104 39
-114 13 -5 80 -12 150 -16 159 -9 167 -17 96 -93 l-47 -53 -50 9 c-79 14 -143
0 -231 -48 -77 -43 -80 -44 -166 -42 -49 0 -91 4 -94 7 -3 3 7 16 23 28 134
103 199 249 179 402 -10 84 -36 114 -145 168 -65 32 -106 59 -130 87 -37 42
-116 81 -166 81 -13 0 -53 -9 -88 -21 -73 -23 -118 -62 -161 -135 -15 -27 -34
-56 -41 -65 -8 -8 -42 -67 -77 -129 l-64 -114 -79 -32 c-43 -17 -117 -46 -163
-64 -64 -26 -88 -40 -102 -64 -34 -54 -34 -74 -3 -107 40 -42 9 -38 -62 7 -31
20 -82 48 -113 62 -107 48 -236 126 -304 183 -37 31 -93 66 -125 79 -31 12
-82 32 -112 43 -116 46 -152 76 -199 169 -20 39 -66 84 -156 153 -122 93 -177
130 -215 145 -19 8 -55 26 -80 40 -25 15 -86 41 -135 59 -138 50 -135 49 -107
57 13 4 54 22 90 40 67 34 68 34 209 34 78 0 184 6 235 14 51 8 150 19 220 25
73 5 138 16 155 24 17 9 35 12 43 7 9 -5 63 0 125 10 177 29 234 48 287 97 26
25 26 25 60 7 18 -11 35 -20 37 -21 2 -1 -17 -31 -42 -66 -52 -72 -71 -116
-87 -201 -22 -110 7 -209 72 -245 28 -16 20 -18 203 40 140 44 225 58 425 69
274 15 290 29 254 218 l-6 33 80 -7 c182 -15 561 -2 647 22 50 14 125 59 125
75 0 5 15 19 33 31 19 13 65 44 103 70 50 34 89 52 139 63 39 9 84 25 100 35
17 9 44 18 60 19 17 0 68 14 115 30 91 32 110 36 110 23z m540 -8 c0 -8 -5
-12 -10 -9 -6 4 -8 11 -5 16 9 14 15 11 15 -7z m197 -26 c-3 -7 -5 -2 -5 12 0
14 2 19 5 13 2 -7 2 -19 0 -25z m93 -13 c0 -8 -2 -15 -4 -15 -2 0 -6 7 -10 15
-3 8 -1 15 4 15 6 0 10 -7 10 -15z m-11 -27 c8 -15 11 -62 8 -138 l-3 -115 -2
121 c-1 87 -6 125 -15 133 -8 6 -17 8 -20 4 -4 -3 -7 -1 -7 5 0 20 26 13 39
-10z m41 -143 c0 -91 -3 -165 -7 -165 -9 0 -16 306 -8 320 3 6 8 10 11 10 2 0
4 -74 4 -165z m-325 76 c1 -11 -2 -18 -7 -15 -4 3 -8 15 -8 27 0 20 0 20 -16
1 -14 -18 -15 -18 -4 5 13 26 33 16 35 -18z m-74 -54 c-10 -9 -11 -8 -5 6 3
10 9 15 12 12 3 -3 0 -11 -7 -18z m-21 -21 c0 -2 -8 -10 -17 -17 -16 -13 -17
-12 -4 4 13 16 21 21 21 13z m24 -11 c3 -8 1 -15 -4 -15 -6 0 -10 7 -10 15 0
8 2 15 4 15 2 0 6 -7 10 -15z m56 1 c0 -16 -18 -31 -27 -22 -8 8 5 36 17 36 5
0 10 -6 10 -14z m305 -117 c-7 -10 -35 -1 -35 11 0 5 9 6 20 3 11 -3 17 -9 15
-14z m-438 -36 c-3 -10 -5 -2 -5 17 0 19 2 27 5 18 2 -10 2 -26 0 -35z m437
-8 c19 0 16 -22 -6 -41 l-23 -19 18 21 c9 11 17 24 17 29 0 4 -8 1 -17 -6 -10
-7 -15 -9 -11 -5 4 5 2 16 -5 24 -10 13 -9 14 3 7 8 -6 19 -10 24 -10z m-487
-29 c-1 -19 -5 -32 -9 -29 -5 2 -8 -1 -8 -8 0 -7 -2 -10 -5 -8 -4 5 15 79 21
79 1 0 2 -15 1 -34z m413 3 c0 -11 -29 -19 -34 -10 -3 5 -3 10 -1 13 8 7 35 5
35 -3z m31 -21 c-10 -11 -11 -9 -5 6 6 15 4 17 -6 11 -9 -6 -11 -4 -5 4 5 9
10 10 18 2 8 -8 7 -14 -2 -23z m-394 -18 c-1 -45 -18 -49 -23 -5 -3 31 2 45
16 45 5 0 8 -18 7 -40z m-4487 -8 c0 -11 -8 -26 -17 -35 -18 -15 -126 -70
-275 -140 -43 -20 -110 -60 -150 -89 -95 -70 -243 -142 -343 -167 -128 -32
-371 -72 -488 -81 -81 -7 -121 -15 -164 -34 -44 -21 -66 -25 -102 -21 -28 4
-64 1 -93 -8 -95 -30 -359 -226 -413 -308 -16 -25 -55 -76 -85 -113 -53 -65
-61 -71 -198 -137 -78 -38 -149 -69 -157 -69 -11 0 -13 8 -8 33 12 63 34 98
96 157 65 61 104 124 113 182 8 45 -29 97 -86 125 -105 50 -244 93 -305 93
-146 0 -341 -106 -426 -232 -23 -35 -47 -66 -52 -69 -5 -4 -43 -9 -85 -13
-157 -13 -190 -37 -177 -129 4 -29 7 -67 6 -85 -3 -85 79 -157 238 -213 67
-23 71 -23 241 10 134 25 149 15 40 -26 -25 -9 -118 -47 -206 -85 -89 -37
-169 -68 -178 -68 -13 0 -103 -33 -293 -107 -27 -11 -11 13 28 42 23 17 47 42
55 56 7 15 30 33 51 42 57 22 77 49 69 91 -9 46 -25 57 -95 63 -101 9 -123 1
-187 -75 -71 -84 -126 -124 -225 -162 -100 -39 -124 -39 -144 0 -29 56 -21 82
45 142 53 48 60 59 60 92 0 36 -34 86 -60 86 -5 0 -10 16 -10 35 0 25 -7 43
-25 59 -14 13 -25 26 -25 30 0 4 17 28 38 54 35 44 78 135 132 277 26 68 65
126 162 238 46 54 68 88 70 110 3 28 8 32 48 43 37 9 50 8 71 -4 58 -33 136 7
212 107 27 35 65 75 85 88 20 14 59 43 85 65 48 40 49 41 89 27 36 -11 44 -11
70 4 42 24 57 22 155 -24 49 -23 106 -47 127 -54 25 -7 40 -18 42 -31 6 -39
30 -44 211 -44 l173 0 -20 -40 c-30 -59 -26 -83 18 -114 42 -29 65 -32 99 -13
28 15 73 75 73 97 0 25 30 60 52 60 16 0 18 -4 12 -17 -5 -10 -8 -49 -7 -87 3
-91 16 -106 95 -106 53 0 63 3 90 30 30 31 34 55 13 103 -10 23 10 22 45 -3
41 -29 79 -34 162 -20 104 18 208 61 286 119 76 56 98 87 88 125 l-6 26 87 0
c102 0 208 14 270 35 24 8 78 15 119 15 122 0 316 20 359 38 31 12 80 16 212
17 121 0 176 4 185 13 17 17 28 15 28 -6z m209 -39 c19 -8 78 -29 131 -47 53
-18 132 -52 175 -75 43 -22 82 -41 87 -41 5 0 26 -11 46 -25 l37 -25 -85 6
c-75 6 -91 4 -127 -14 -47 -24 -90 -72 -100 -110 -3 -15 2 -63 11 -107 10 -44
24 -112 31 -152 8 -39 25 -95 39 -125 32 -65 136 -178 165 -178 12 0 21 -4 21
-9 0 -11 -51 -21 -112 -21 -56 0 -156 -23 -202 -47 -16 -9 -53 -37 -81 -64
-28 -27 -68 -56 -89 -64 -67 -28 -73 -94 -14 -137 48 -33 130 -30 211 10 194
94 219 104 256 99 20 -2 59 2 86 10 28 8 68 19 90 26 54 16 85 48 85 89 l0 33
188 1 c171 0 193 2 255 24 66 23 117 61 148 109 l16 25 99 -56 c54 -30 128
-69 164 -87 93 -45 255 -144 255 -156 0 -6 -38 -12 -85 -15 -74 -4 -97 -11
-177 -49 -51 -24 -99 -52 -108 -61 -34 -37 -47 -105 -55 -275 -9 -183 -31
-314 -61 -357 -11 -14 -19 -31 -19 -36 0 -14 -55 -46 -107 -62 -38 -12 -48
-11 -101 9 -69 26 -80 23 -170 -48 -28 -23 -80 -57 -115 -76 -56 -31 -76 -36
-177 -45 -63 -5 -145 -10 -183 -10 -64 0 -69 -2 -110 -39 -77 -70 -110 -76
-225 -37 -123 42 -225 56 -403 56 -205 -1 -375 -29 -434 -74 -47 -36 -113
-120 -135 -172 -21 -47 -50 -71 -135 -109 -157 -70 -248 -73 -290 -8 l-15 23
69 0 c38 0 81 4 96 10 26 10 107 69 113 82 2 4 33 31 70 61 152 125 319 313
363 412 36 77 17 179 -47 253 -36 42 -73 59 -188 83 -32 7 -60 17 -62 23 -2 6
2 43 9 81 12 64 14 68 26 48 16 -30 42 -29 110 6 31 16 77 36 103 45 101 37
217 252 167 312 -17 20 -83 54 -106 54 -10 0 -40 -12 -68 -25 -27 -13 -51 -22
-54 -19 -2 2 7 17 21 32 14 15 31 38 38 51 14 28 90 129 139 188 124 145 214
293 257 422 17 53 54 139 82 192 29 56 53 117 57 145 4 27 10 53 12 57 6 10
67 -1 112 -20z m4194 7 c3 -11 0 -23 -5 -27 -7 -4 -8 -1 -3 7 6 10 4 12 -8 7
-14 -5 -15 -3 -4 13 15 24 14 24 20 0z m477 17 c0 -2 -15 -18 -33 -35 -22 -21
-34 -28 -34 -18 0 8 3 13 7 11 4 -2 18 7 30 20 22 23 30 29 30 22z m147 -44
c-3 -10 -5 -4 -5 12 0 17 2 24 5 18 2 -7 2 -21 0 -30z m-90 -50 c-13 -137 -63
-382 -107 -517 -118 -371 -278 -627 -566 -906 -304 -295 -670 -536 -1249 -822
-88 -43 -191 -93 -230 -110 -38 -17 -90 -39 -115 -50 -25 -11 -63 -28 -85 -38
-48 -22 -154 -66 -250 -105 -38 -16 -74 -32 -80 -36 -5 -3 -28 -12 -50 -19
-22 -7 -53 -18 -70 -25 -32 -14 -150 -60 -200 -77 -16 -6 -43 -16 -60 -23 -16
-7 -73 -27 -125 -45 -52 -17 -138 -47 -190 -65 -174 -60 -415 -137 -505 -161
-5 -2 -41 -12 -80 -24 -147 -45 -262 -76 -515 -140 -255 -63 -327 -80 -405
-96 -44 -9 -123 -24 -175 -35 -52 -10 -106 -21 -120 -24 -14 -3 -79 -14 -145
-25 -66 -11 -129 -22 -140 -25 -11 -3 -78 -12 -150 -21 -71 -8 -141 -17 -155
-19 -253 -38 -830 -50 -1085 -22 -157 18 -367 52 -405 66 -14 5 -59 17 -100
26 -41 8 -84 19 -95 24 -11 5 -56 21 -100 36 -463 159 -847 420 -1290 878
-165 170 -215 227 -198 227 5 0 50 -28 99 -63 95 -67 356 -231 464 -292 55
-30 370 -187 435 -215 178 -79 485 -174 695 -215 47 -9 105 -21 130 -26 63
-13 274 -39 405 -49 148 -12 571 -12 720 0 190 15 457 40 490 46 17 3 41 7 55
9 14 2 79 10 145 19 66 9 134 21 150 26 17 5 55 12 85 15 141 18 654 132 880
195 63 18 142 39 175 47 33 7 69 18 80 23 11 5 40 14 65 20 25 6 54 15 65 19
11 5 135 47 275 94 140 47 307 105 370 130 63 25 140 55 170 66 30 12 64 26
75 31 11 5 81 36 155 69 745 326 1327 715 1943 1295 206 194 680 705 871 939
21 26 41 47 43 47 3 0 3 -26 0 -57z m-477 21 c0 -8 -7 -14 -15 -14 -17 0 -18
2 -9 24 7 18 24 12 24 -10z m-137 -1 c-6 -16 -5 -16 11 -4 13 11 20 11 28 3 9
-9 7 -12 -7 -12 -10 0 -27 -7 -37 -17 -17 -15 -18 -15 -18 3 0 11 5 25 12 32
16 16 19 15 11 -5z m71 1 c5 -14 4 -15 -9 -4 -17 14 -19 20 -6 20 5 0 12 -7
15 -16z m336 -23 c0 -5 -7 -14 -15 -21 -8 -7 -15 -18 -15 -26 0 -7 -4 -15 -9
-18 -13 -9 -42 4 -35 16 3 5 12 4 22 -4 10 -8 13 -9 9 -1 -4 6 -3 14 3 18 5 3
10 15 10 26 0 10 7 19 15 19 8 0 15 -4 15 -9z m70 4 c0 -1 -13 -14 -30 -30
-28 -27 -29 -27 -25 -5 5 26 15 40 15 21 0 -7 5 -9 10 -6 6 4 8 10 6 14 -3 4
1 8 9 8 8 0 15 -1 15 -2z m-4800 -17 c0 -6 -17 -43 -38 -82 -42 -77 -84 -177
-101 -242 -15 -56 -102 -195 -188 -301 -40 -48 -91 -112 -114 -141 l-41 -54
-22 21 c-24 22 -141 51 -209 51 -23 0 -58 -8 -77 -19 -19 -10 -75 -26 -124
-35 -49 -9 -106 -24 -125 -33 -63 -31 -101 -139 -69 -196 7 -12 16 -78 20
-147 12 -192 13 -197 26 -212 6 -8 49 -31 94 -52 46 -20 94 -44 108 -52 14 -7
37 -19 53 -26 29 -13 36 -43 17 -79 -9 -15 -14 -17 -29 -7 -11 6 -32 8 -54 4
-43 -8 -94 -64 -103 -112 -7 -40 19 -98 58 -127 26 -19 38 -47 20 -47 -4 0
-39 19 -77 42 -66 40 -75 42 -161 46 -109 5 -162 -15 -184 -68 -16 -38 -1
-158 32 -259 16 -51 19 -77 14 -135 -13 -137 -18 -144 -120 -194 -59 -28 -114
-27 -246 7 -47 12 -110 24 -140 27 -52 6 -58 4 -102 -30 -41 -32 -53 -36 -105
-36 -116 0 -275 55 -336 116 -28 28 -32 39 -41 113 -6 58 -18 69 -59 52 -75
-32 -105 -27 -232 37 l-119 59 -60 88 c-85 123 -92 127 -223 133 -103 4 -110
6 -159 39 -52 35 -121 52 -277 68 -78 8 -93 20 -38 29 21 3 123 49 227 103
104 53 223 114 264 135 41 21 119 49 173 63 99 25 144 46 501 236 76 41 182
97 235 124 54 28 138 80 187 117 85 65 90 67 103 48 11 -16 25 -20 74 -20 52
0 73 6 153 47 l92 46 50 -21 c62 -27 84 -27 156 -2 184 63 448 236 493 323 24
47 45 128 39 151 -4 19 3 24 67 45 90 29 217 97 319 168 43 30 116 72 162 92
46 20 94 44 107 52 13 8 40 21 59 29 19 7 39 17 45 22 13 12 25 10 25 -4z
m5017 -20 c-3 -7 -5 -2 -5 12 0 14 2 19 5 13 2 -7 2 -19 0 -25z m-697 -18
c-13 -24 -26 -26 -34 -5 -3 8 -1 15 3 15 5 0 12 -6 14 -12 3 -8 6 -6 6 5 1 9
6 17 11 17 7 0 7 -6 0 -20z m-50 7 c0 -2 -10 -12 -22 -23 l-23 -19 19 23 c18
21 26 27 26 19z m60 -64 c-1 -24 -2 -26 -11 -10 -6 9 -14 15 -20 12 -5 -3 -6
1 -3 9 10 27 34 18 34 -11z m362 13 c15 2 16 -1 7 -18 -10 -19 -11 -19 -24 -1
-8 10 -14 23 -15 28 0 6 4 5 8 -1 4 -6 15 -10 24 -8z m-455 -15 c-1 -12 -7
-17 -17 -14 -13 4 -13 4 0 -6 9 -6 18 -7 24 -1 16 16 30 11 16 -5 -15 -18 -32
-19 -48 -3 -9 9 -8 16 6 29 22 22 21 22 19 0z m417 -51 c-6 -6 -15 -5 -24 1
-13 9 -12 10 3 5 9 -3 17 0 17 6 0 6 3 8 7 5 4 -4 2 -12 -3 -17z m-483 -3 c-6
-8 -7 -18 -3 -22 4 -5 1 -5 -5 -1 -16 9 -17 -6 -3 -20 8 -8 6 -15 -6 -25 -12
-9 -15 -10 -10 -1 4 6 3 12 -2 12 -6 0 -13 8 -16 17 -4 10 -4 14 0 11 4 -4 15
4 26 17 11 14 22 25 25 25 3 0 0 -6 -6 -13z m424 3 c-3 -5 -1 -10 4 -10 6 0
11 -5 11 -12 0 -6 -3 -8 -7 -5 -3 4 -11 -1 -18 -10 -11 -14 -12 -14 -17 5 -4
15 -2 19 8 15 10 -4 12 0 8 11 -3 9 -1 16 6 16 6 0 8 -4 5 -10z m-484 -29
c-11 -15 -17 -32 -13 -36 4 -5 1 -5 -6 -1 -9 6 -7 14 8 37 12 16 24 29 26 29
3 0 -4 -13 -15 -29z m399 -17 c0 -8 -4 -12 -10 -9 -5 3 -10 10 -10 16 0 5 5 9
10 9 6 0 10 -7 10 -16z m55 -54 c-22 -23 -41 -36 -43 -30 -2 5 -8 10 -13 10
-6 0 -7 -6 -3 -12 4 -7 3 -10 -1 -5 -13 12 -16 47 -4 47 5 0 7 -5 3 -11 -4 -7
-1 -10 7 -7 8 3 14 11 14 18 0 7 8 14 17 16 12 1 15 -3 11 -14 -4 -12 1 -11
18 6 40 38 35 24 -6 -18z m-480 7 c6 -5 3 -7 -6 -4 -9 3 -22 0 -29 -6 -9 -8
-8 -5 1 10 7 12 16 19 19 15 3 -4 10 -11 15 -15z m892 -19 c-3 -7 -5 -2 -5 12
0 14 2 19 5 13 2 -7 2 -19 0 -25z m-914 -13 c-3 -9 -8 -14 -10 -11 -3 3 -2 9
2 15 9 16 15 13 8 -4z m-25 -20 c-3 -3 -9 2 -12 12 -6 14 -5 15 5 6 7 -7 10
-15 7 -18z m61 2 c0 -9 -2 -8 -6 1 -2 6 -10 9 -15 6 -7 -4 -8 -2 -4 5 9 13 26
5 25 -12z m868 -19 c-3 -8 -6 -5 -6 6 -1 11 2 17 5 13 3 -3 4 -12 1 -19z
m-498 -15 c-18 -21 -49 -36 -49 -23 0 5 7 10 15 10 13 0 19 12 16 32 0 4 6 5
14 1 12 -4 13 -8 4 -20z m51 22 c0 -1 -10 -10 -22 -21 -14 -12 -18 -13 -10 -3
6 9 10 18 7 21 -3 2 2 5 10 5 8 0 15 -1 15 -2z m-122 -24 c3 -9 -2 -11 -17 -6
-12 4 -21 2 -21 -4 0 -6 5 -10 11 -8 6 1 14 -4 16 -10 3 -7 -1 -13 -7 -13 -10
0 -9 -4 0 -15 11 -13 10 -14 -5 -9 -12 5 -16 4 -12 -3 4 -6 0 -14 -9 -17 -8
-3 -12 -11 -8 -17 5 -8 9 -8 14 1 5 8 9 5 12 -8 4 -14 -10 -36 -48 -76 -29
-31 -55 -56 -56 -56 -2 0 -4 13 -3 29 0 16 4 27 10 24 5 -2 2 2 -9 11 -26 21
-14 51 14 36 15 -8 18 -15 11 -24 -5 -6 -6 -17 -2 -24 5 -8 19 1 47 29 28 29
34 40 20 37 -24 -4 -32 35 -11 52 9 8 13 21 9 36 -10 40 32 72 44 35z m-8389
-39 c0 -14 -2 -14 -6 -2 -4 8 -13 21 -22 28 -14 11 -13 11 7 2 12 -6 22 -18
21 -28z m8461 15 c0 -2 -10 -12 -22 -23 l-23 -19 19 23 c18 21 26 27 26 19z
m-8523 -14 c-9 -2 -14 -9 -11 -15 14 -23 21 -75 10 -74 -6 0 -12 -3 -12 -9 -1
-5 3 -9 9 -7 5 2 14 -3 18 -10 11 -16 12 -37 1 -22 -4 6 -15 13 -25 17 -14 5
-16 2 -11 -17 6 -27 -14 -46 -27 -25 -7 12 -9 12 -9 0 0 -8 -2 -12 -5 -9 -3 3
-2 13 1 23 7 17 8 17 21 -1 13 -17 14 -15 8 18 -5 28 -3 41 9 54 19 18 17 50
-3 46 -9 -2 -9 3 -1 18 6 11 18 19 28 19 16 -1 15 -2 -1 -6z m8054 -10 c13
-17 13 -17 -6 -3 -11 8 -22 16 -24 17 -2 2 0 3 6 3 6 0 17 -8 24 -17z m89 7
c0 -5 -5 -10 -11 -10 -5 0 -7 5 -4 10 3 6 8 10 11 10 2 0 4 -4 4 -10z m-8099
-47 c-9 -16 -10 -14 -11 12 0 21 3 26 11 18 8 -8 8 -16 0 -30z m8015 4 c4 -4
2 -7 -4 -7 -5 0 -18 -3 -26 -6 -12 -4 -15 -2 -10 9 5 15 27 17 40 4z m-8096
-11 c0 -2 -7 -7 -16 -10 -8 -3 -12 -2 -9 4 6 10 25 14 25 6z m8031 -15 c-8 -5
-10 -14 -6 -22 5 -8 5 -11 0 -7 -4 4 -14 0 -22 -10 -10 -12 -9 -8 2 16 8 17
21 32 28 32 8 0 8 -3 -2 -9z m-7964 -33 c-3 -7 -5 -2 -5 12 0 14 2 19 5 13 2
-7 2 -19 0 -25z m-77 -12 c0 -6 -4 -5 -9 3 -5 7 -14 11 -20 7 -7 -5 -9 -1 -5
9 5 12 9 13 20 4 8 -6 14 -17 14 -23z m8294 26 c2 -4 1 -14 -4 -22 -7 -11 -12
-12 -21 -3 -6 6 -8 16 -5 22 8 13 23 14 30 3z m-8334 -73 c0 8 3 12 6 8 3 -3
3 -11 -1 -17 -5 -8 -11 -7 -23 2 -13 11 -14 11 -9 -2 4 -8 10 -23 13 -32 4
-10 10 -18 15 -18 5 0 8 -26 7 -57 -2 -57 -2 -57 -5 -11 -3 39 -7 46 -21 42
-12 -4 -13 -3 -4 3 7 6 10 17 6 27 -5 13 -9 14 -14 6 -6 -11 -7 15 -1 64 1 6
8 1 16 -10 10 -13 14 -15 15 -5z m99 -19 c0 -10 -3 -8 -9 5 -12 27 -12 43 0
25 5 -8 9 -22 9 -30z m8031 20 c0 -5 -2 -10 -4 -10 -3 0 -8 5 -11 10 -3 6 -1
10 4 10 6 0 11 -4 11 -10z m220 -25 c0 -8 -9 -15 -20 -15 -20 0 -26 11 -13 23
12 13 33 7 33 -8z m-371 -21 c-10 -13 -10 -17 2 -24 10 -7 8 -9 -8 -7 -12 0
-19 6 -16 12 10 18 25 35 30 35 3 0 0 -7 -8 -16z m128 -10 c3 -8 1 -20 -4 -25
-7 -7 -12 -2 -15 15 -6 28 9 36 19 10z m-8169 -14 c-7 -10 -14 -18 -15 -16 -6
6 9 36 18 36 5 0 4 -9 -3 -20z m150 -20 c-1 -21 -5 -45 -10 -52 -5 -8 -7 7 -4
37 5 59 5 55 11 55 3 0 4 -18 3 -40z m8312 35 c0 -2 -9 -9 -20 -15 -16 -9 -18
-8 -14 5 5 13 34 22 34 10z m-334 -32 c-10 -10 -19 5 -10 18 6 11 8 11 12 0 2
-7 1 -15 -2 -18z m264 8 c0 -18 -27 -37 -38 -26 -3 3 0 5 6 5 7 0 12 9 12 20
0 11 5 20 10 20 6 0 10 -9 10 -19z m-161 -27 c-6 -7 -15 -11 -21 -8 -5 3 -4
12 3 20 6 7 15 11 21 8 5 -3 4 -12 -3 -20z m-8119 -23 c0 -22 -3 -42 -7 -44
-5 -3 -8 15 -8 39 0 24 3 44 8 44 4 0 7 -18 7 -39z m7922 27 c-17 -17 -15 -29
3 -22 17 7 22 -31 5 -41 -6 -4 -7 1 -3 11 4 10 2 15 -3 11 -6 -3 -15 -3 -21 1
-14 9 2 52 19 52 9 0 9 -3 0 -12z m301 -4 c-3 -8 -12 -13 -19 -10 -8 3 -14 0
-14 -6 0 -6 -3 -8 -7 -4 -5 4 1 14 11 22 26 18 37 18 29 -2z m-346 -24 c1 -11
-3 -18 -8 -14 -5 3 -16 0 -24 -6 -9 -7 -15 -8 -15 -2 0 5 10 17 23 25 12 9 22
16 22 16 1 1 1 -8 2 -19z m-7940 -32 c-3 -7 -5 -2 -5 12 0 14 2 19 5 13 2 -7
2 -19 0 -25z m8285 10 c-7 -7 -12 -8 -12 -2 0 14 12 26 19 19 2 -3 -1 -11 -7
-17z m-8385 -32 c1 -25 -3 -33 -12 -30 -7 3 -16 -4 -20 -16 -4 -12 -9 -20 -11
-17 -3 3 37 97 42 97 0 0 0 -15 1 -34z m79 -6 c0 -11 -4 -20 -8 -20 -10 0 -11
24 -1 33 9 9 9 10 9 -13z m95 -11 c-5 -13 -10 -19 -10 -12 -1 15 10 45 15 40
3 -2 0 -15 -5 -28z m8126 20 c-10 -6 -22 -20 -27 -32 l-9 -22 0 22 c-1 21 22
42 44 42 6 0 2 -4 -8 -10z m48 1 c3 -5 1 -10 -4 -10 -6 0 -11 5 -11 10 0 6 2
10 4 10 3 0 8 -4 11 -10z m-8207 -18 c2 -7 -2 -10 -12 -6 -12 4 -16 0 -16 -16
0 -11 4 -18 10 -15 6 3 7 -1 4 -9 -3 -9 -9 -16 -13 -16 -9 0 -13 58 -5 71 7
12 26 7 32 -9z m7893 -15 c-11 -11 -41 -2 -41 12 0 6 7 7 17 4 12 -5 14 -3 8
8 -8 12 -6 12 9 0 11 -9 13 -18 7 -24z m-86 13 c-3 -5 -1 -10 5 -10 6 0 8 -4
5 -10 -3 -5 -1 -10 6 -10 7 0 10 -2 7 -5 -11 -11 -36 7 -33 23 5 23 4 22 11
22 3 0 2 -4 -1 -10z m55 -30 c0 -5 -4 -10 -10 -10 -5 0 -10 5 -10 10 0 6 5 10
10 10 6 0 10 -4 10 -10z m108 -10 c13 -22 7 -45 -9 -34 -5 3 -7 10 -4 15 4 5
-1 9 -9 9 -10 0 -13 6 -10 15 8 20 17 19 32 -5z m197 -1 c-2 -24 -30 -45 -40
-29 -4 6 -3 10 2 9 20 -3 34 2 28 11 -3 6 -3 15 0 20 9 15 12 12 10 -11z
m-8170 -33 c-15 -20 -30 -36 -32 -36 -3 0 -1 6 4 13 5 6 17 25 27 40 10 16 20
26 23 24 3 -3 -7 -22 -22 -41z m7738 19 c-3 -9 -8 -14 -10 -11 -3 3 -2 9 2 15
9 16 15 13 8 -4z m-7833 1 c0 -3 -4 -8 -10 -11 -5 -3 -10 -1 -10 4 0 6 5 11
10 11 6 0 10 -2 10 -4z m8214 -20 c11 -18 13 -27 4 -32 -7 -4 -8 -3 -4 4 4 7
1 12 -8 12 -8 0 -20 -8 -26 -17 -10 -16 -10 -16 -8 -1 2 9 -6 24 -17 32 -17
13 -18 15 -3 16 9 0 20 -4 23 -10 10 -16 25 -12 19 5 -9 23 2 18 20 -9z m-409
-13 c-2 -10 -4 -20 -5 -23 -1 -3 -2 -9 -1 -13 1 -5 -6 -7 -14 -5 -15 3 -22 19
-8 17 4 0 10 9 15 20 9 26 17 28 13 4z m91 -10 c-10 -10 -19 5 -10 18 6 11 8
11 12 0 2 -7 1 -15 -2 -18z m-8010 -50 c-10 -10 -19 5 -10 18 6 11 8 11 12 0
2 -7 1 -15 -2 -18z m8220 18 c-4 -5 -3 -11 1 -14 5 -2 3 -2 -4 -1 -7 2 -19 -3
-27 -12 -13 -12 -15 -12 -13 5 0 11 6 17 14 14 7 -3 13 0 13 6 0 6 5 11 11 11
5 0 8 -4 5 -9z m-8146 -26 c0 -18 -4 -23 -15 -19 -25 10 -19 33 13 43 1 1 2
-10 2 -24z m47 3 c-3 -8 -6 -5 -6 6 -1 11 2 17 5 13 3 -3 4 -12 1 -19z m17
-30 c-13 -26 -27 -48 -29 -48 -3 0 4 18 15 40 11 23 19 44 16 49 -3 4 1 8 9 8
10 0 7 -13 -11 -49z m-157 0 c-3 -8 -6 -5 -6 6 -1 11 2 17 5 13 3 -3 4 -12 1
-19z m7850 4 c-22 -24 -22 -38 0 -21 15 13 15 12 3 -11 -8 -15 -15 -20 -18
-12 -2 6 -8 10 -13 6 -17 -10 -9 10 13 33 25 27 39 31 15 5z m393 7 c0 -6 7
-8 16 -5 14 5 15 4 4 -9 -7 -9 -13 -14 -14 -13 -1 2 -8 11 -15 21 -9 11 -10
17 -2 17 6 0 11 -5 11 -11z m-279 -28 c-8 -5 -20 -7 -28 -4 -21 8 -15 13 15
13 20 0 23 -3 13 -9z m251 -9 c-4 -12 -1 -14 14 -8 10 4 15 4 9 -1 -5 -4 -26
-22 -45 -38 -19 -16 -29 -23 -22 -15 14 16 16 34 3 26 -5 -4 -11 -1 -13 5 -5
14 -38 0 -38 -17 0 -8 -7 -15 -15 -15 -8 -1 -22 -2 -32 -3 -9 0 -18 4 -20 11
-3 7 7 10 26 9 31 -2 42 9 19 17 -7 2 -5 3 5 1 12 -2 17 2 13 11 -5 13 18 10
66 -10 13 -5 16 -1 14 18 -2 14 2 24 10 24 7 0 10 -7 6 -15z m-8225 -14 c-3
-8 -6 -5 -6 6 -1 11 2 17 5 13 3 -3 4 -12 1 -19z m40 -16 c-17 -16 -18 -16
-11 1 4 11 1 17 -7 17 -11 0 -11 2 1 10 24 15 37 -7 17 -28z m83 18 c0 -5 -2
-10 -4 -10 -3 0 -8 5 -11 10 -3 6 -1 10 4 10 6 0 11 -4 11 -10z m7683 -17 c-7
-2 -13 -13 -13 -24 0 -10 -3 -19 -7 -20 -56 -6 -55 -7 -21 22 18 16 38 28 43
28 6 0 4 -3 -2 -6z m-7679 -27 c-3 -9 -10 -13 -15 -10 -5 3 -3 11 4 19 15 16
19 13 11 -9z m7746 12 c0 -5 -5 -8 -11 -8 -5 0 -8 -4 -5 -9 3 -5 -1 -12 -10
-15 -11 -4 -15 -2 -11 8 3 7 1 18 -5 24 -7 7 -2 10 16 9 14 -1 26 -5 26 -9z
m-7855 -8 c3 -5 1 -10 -4 -10 -6 0 -11 5 -11 10 0 6 2 10 4 10 3 0 8 -4 11
-10z m39 -12 c11 -11 11 -15 -2 -24 -12 -9 -13 -17 -3 -46 8 -24 8 -42 1 -59
-9 -21 -9 -19 -4 11 4 27 3 32 -6 20 -9 -12 -10 -10 -5 9 5 17 4 21 -5 16 -10
-6 -12 -1 -8 18 3 15 1 24 -3 21 -5 -3 -9 2 -9 10 0 9 7 16 16 16 8 0 12 5 9
10 -9 14 3 12 19 -2z m8103 -3 c0 -8 -4 -12 -9 -9 -5 3 -6 10 -3 15 9 13 12
11 12 -6z m-8066 -42 c-12 -20 -14 -14 -5 12 4 9 9 14 11 11 3 -2 0 -13 -6
-23z m8032 4 c4 3 7 4 7 2 0 -3 -13 -17 -28 -32 -20 -19 -29 -23 -29 -13 0 8
4 13 8 11 3 -3 9 4 12 16 4 16 3 18 -8 9 -7 -6 -20 -8 -29 -4 -25 10 -19 23 9
19 14 -1 25 3 25 9 0 6 7 3 14 -6 7 -10 16 -15 19 -11z m-8143 -1 c0 -3 -4 -8
-10 -11 -5 -3 -10 -1 -10 4 0 6 5 11 10 11 6 0 10 -2 10 -4z m30 -10 c0 -3 -4
-8 -10 -11 -5 -3 -10 -1 -10 4 0 6 5 11 10 11 6 0 10 -2 10 -4z m7650 -21 c-7
-8 -17 -15 -23 -15 -6 0 -2 7 9 15 25 19 30 19 14 0z m58 -6 c-2 -7 -17 -13
-33 -15 -24 -2 -27 -1 -12 7 9 6 22 7 27 4 6 -3 10 -1 10 4 0 6 3 11 6 11 3 0
4 -5 2 -11z m337 2 c3 -5 1 -12 -5 -16 -5 -3 -10 1 -10 9 0 18 6 21 15 7z
m-8045 -17 c0 -2 -9 -4 -20 -4 -11 0 -20 4 -20 9 0 5 9 7 20 4 11 -3 20 -7 20
-9z m7790 6 c0 -5 -5 -10 -11 -10 -5 0 -7 5 -4 10 3 6 8 10 11 10 2 0 4 -4 4
-10z m45 0 c3 -5 -1 -10 -9 -10 -9 0 -16 5 -16 10 0 6 4 10 9 10 6 0 13 -4 16
-10z m-232 -32 c-17 -19 -17 -20 5 -36 l22 -17 -33 -1 c-17 -1 -24 1 -15 3 16
4 16 6 3 20 -12 11 -13 19 -5 28 8 10 7 15 -2 19 -7 3 -2 3 11 0 17 -5 21 -3
16 6 -6 9 -4 11 4 6 9 -6 8 -13 -6 -28z m-7645 -30 c8 -27 7 -35 -2 -32 -6 2
-12 24 -13 47 -1 45 0 43 15 -15z m7932 36 c0 -8 -4 -12 -10 -9 -5 3 -10 10
-10 16 0 5 5 9 10 9 6 0 10 -7 10 -16z m93 -6 c3 -10 4 -18 3 -18 -2 0 -10 8
-19 18 -14 15 -14 19 -3 19 8 0 17 -9 19 -19z m-7956 -72 c-3 -17 -5 -16 -6 6
0 15 -5 30 -11 33 -5 3 -10 16 -9 28 0 18 3 16 15 -12 8 -18 13 -43 11 -55z
m7533 74 c0 -5 -2 -10 -4 -10 -3 0 -8 5 -11 10 -3 6 -1 10 4 10 6 0 11 -4 11
-10z m470 -3 c0 -2 -10 -12 -22 -23 l-23 -19 19 23 c18 21 26 27 26 19z
m-8030 -42 c0 -5 -5 -3 -10 5 -5 8 -10 20 -10 25 0 6 5 3 10 -5 5 -8 10 -19
10 -25z m7519 6 c11 -11 22 -17 25 -13 3 3 6 0 6 -6 0 -14 -16 -14 -45 -2
l-20 9 20 1 c18 1 17 2 -5 15 -14 8 -19 14 -12 15 6 0 21 -9 31 -19z m41 15
c0 -11 -19 -15 -25 -6 -3 5 1 10 9 10 9 0 16 -2 16 -4z m-115 -18 c-16 -6 -33
-15 -36 -21 -4 -5 -12 -8 -19 -5 -15 5 48 38 70 37 8 0 2 -5 -15 -11z m365
-22 c0 -3 -4 -8 -10 -11 -5 -3 -10 -1 -10 4 0 6 5 11 10 11 6 0 10 -2 10 -4z
m125 -6 c9 -14 -32 -50 -50 -44 -8 4 -15 13 -15 20 0 12 4 12 21 3 17 -9 23
-8 30 2 5 8 3 17 -4 21 -9 6 -9 8 0 8 6 0 14 -4 18 -10z m-603 -12 c-7 -7 -12
-21 -12 -32 0 -17 -7 -21 -41 -24 -28 -2 -38 1 -34 9 4 6 15 9 25 6 24 -6 41
6 43 31 1 12 8 22 16 22 12 0 12 -3 3 -12z m54 -23 c-1 -33 -22 -33 -22 0 0
14 5 25 12 25 7 0 11 -11 10 -25z m-7449 -107 c-2 -24 -4 -5 -4 42 0 47 2 66
4 43 2 -24 2 -62 0 -85z m90 50 c-2 -13 -4 -5 -4 17 -1 22 1 32 4 23 2 -10 2
-28 0 -40z m7210 46 c-3 -3 -12 -4 -19 -1 -8 3 -5 6 6 6 11 1 17 -2 13 -5z
m313 -10 c0 -14 -2 -15 -17 -3 -11 10 -14 10 -9 2 4 -7 3 -13 -3 -13 -16 0
-22 18 -9 23 25 10 38 7 38 -9z m-7572 -29 c-3 -3 -9 2 -12 12 -6 14 -5 15 5
6 7 -7 10 -15 7 -18z m7231 -2 c-3 -46 1 -84 9 -80 4 3 8 -9 8 -25 1 -21 -1
-26 -7 -16 -15 26 -28 103 -22 126 8 31 15 28 12 -5z m18 5 c-3 -8 -6 -5 -6 6
-1 11 2 17 5 13 3 -3 4 -12 1 -19z m393 8 c0 -3 -4 -8 -10 -11 -5 -3 -10 -1
-10 4 0 6 5 11 10 11 6 0 10 -2 10 -4z m131 -6 c24 -13 25 -30 2 -30 -14 0
-15 2 -5 9 11 7 11 9 -1 14 -11 4 -16 -3 -19 -23 -4 -25 -2 -27 13 -19 10 5
25 6 35 2 13 -5 15 -3 9 8 -4 8 -5 11 0 7 9 -9 35 9 35 24 0 6 -7 5 -15 -2
-12 -10 -15 -10 -15 2 0 7 9 14 20 15 27 2 25 -19 -2 -44 -32 -28 -53 -40 -43
-23 5 8 3 11 -6 8 -8 -3 -13 -12 -11 -21 1 -9 -6 -21 -17 -26 -18 -10 -19 -7
-16 47 4 73 2 70 36 52z m-7758 -117 c3 -43 2 -73 -4 -73 -5 0 -9 35 -9 77 0
94 5 92 13 -4z m24 55 c-3 -8 -6 -5 -6 6 -1 11 2 17 5 13 3 -3 4 -12 1 -19z
m20 -190 c-1 -40 -3 -8 -3 72 0 80 2 112 3 73 2 -40 2 -106 0 -145z m7658 172
c-3 -5 -16 -10 -28 -9 -20 1 -20 2 3 9 14 4 26 8 28 9 2 1 0 -3 -3 -9z m0 -29
c8 -14 -23 -41 -40 -35 -7 3 -16 13 -20 22 -5 14 -3 14 13 -1 16 -15 21 -15
31 -3 9 11 9 15 -1 19 -9 4 -9 6 -1 6 6 1 14 -3 18 -8z m-417 -55 c10 -6 10
-11 1 -22 -9 -11 -9 -18 -1 -26 15 -15 15 -28 0 -28 -6 0 -8 3 -5 7 4 3 2 12
-4 20 -9 9 -8 17 0 27 7 9 8 17 2 20 -5 3 -11 1 -13 -6 -3 -8 -6 -6 -10 4 -7
17 7 19 30 4z m212 10 c0 -3 -4 -8 -10 -11 -5 -3 -10 -1 -10 4 0 6 5 11 10 11
6 0 10 -2 10 -4z m130 0 c0 -3 -4 -8 -10 -11 -5 -3 -10 -1 -10 4 0 6 5 11 10
11 6 0 10 -2 10 -4z m30 0 c0 -2 -8 -10 -17 -17 -16 -13 -17 -12 -4 4 13 16
21 21 21 13z m-7703 -48 c-3 -7 -5 -2 -5 12 0 14 2 19 5 13 2 -7 2 -19 0 -25z
m7628 12 c-9 -14 8 -12 26 2 9 8 8 6 -2 -5 -9 -11 -22 -15 -32 -11 -21 8 -22
24 -1 24 8 0 12 -4 9 -10z m-265 -4 c0 -3 -4 -8 -10 -11 -5 -3 -10 -1 -10 4 0
6 5 11 10 11 6 0 10 -2 10 -4z m250 -26 c0 -5 -13 -16 -28 -24 -23 -12 -29
-12 -29 -1 0 7 6 11 13 8 6 -2 18 3 25 11 17 18 19 19 19 6z m-240 -9 c0 -6
-4 -13 -10 -16 -5 -3 -10 -30 -10 -58 0 -33 3 -47 9 -38 5 7 13 12 19 10 6 -2
-1 -12 -14 -22 l-24 -18 0 53 c0 61 8 98 21 98 5 0 9 -4 9 -9z m97 -11 c8 -12
9 -21 3 -25 -15 -9 -29 3 -27 25 2 25 9 25 24 0z m61 2 c9 9 12 9 12 1 0 -7
-5 -15 -11 -19 -8 -5 -8 -9 1 -14 8 -5 7 -9 -5 -13 -9 -4 -13 -3 -10 3 3 6 -2
10 -12 11 -11 0 -13 3 -5 6 10 4 9 9 -5 20 -17 13 -17 13 3 4 15 -7 24 -7 32
1z m-7508 -45 c0 -5 -4 -5 -10 -2 -5 3 -10 14 -10 23 0 15 2 15 10 2 5 -8 10
-19 10 -23z m7380 -3 c0 -35 -15 -30 -18 7 -2 19 2 28 8 24 5 -3 10 -17 10
-31z m52 -19 c4 -21 -2 -30 -40 -55 -25 -16 -50 -30 -56 -30 -6 1 -1 6 12 13
12 7 19 17 15 22 -4 4 0 5 10 2 15 -6 17 -3 12 14 -5 15 -2 22 14 26 12 3 21
12 21 19 0 23 7 16 12 -11z m25 3 c2 -17 0 -19 -7 -8 -5 8 -6 18 -4 22 8 12
10 10 11 -14z m-7407 -4 c0 -2 -7 -4 -15 -4 -8 0 -15 4 -15 10 0 5 7 7 15 4 8
-4 15 -8 15 -10z m-43 -36 c-3 -7 -5 -2 -5 12 0 14 2 19 5 13 2 -7 2 -19 0
-25z m35 -40 c-6 -6 -8 -1 -7 14 4 39 8 44 12 19 3 -13 0 -28 -5 -33z m25 10
c-3 -7 -5 -2 -5 12 0 14 2 19 5 13 2 -7 2 -19 0 -25z m-50 -20 c-3 -8 -6 -5
-6 6 -1 11 2 17 5 13 3 -3 4 -12 1 -19z m10 -50 c-3 -8 -6 -5 -6 6 -1 11 2 17
5 13 3 -3 4 -12 1 -19z m71 -3 c-3 -3 -9 2 -12 12 -6 14 -5 15 5 6 7 -7 10
-15 7 -18z m-33 5 c3 -5 2 -10 -4 -10 -5 0 -13 5 -16 10 -3 6 -2 10 4 10 5 0
13 -4 16 -10z m6770 -20 c18 -5 2 -6 -40 -3 -38 3 -72 7 -74 9 -8 7 84 2 114
-6z m-6735 -10 c5 8 10 12 10 8 0 -3 3 -15 6 -25 5 -15 4 -15 -5 -3 -9 12 -11
11 -11 -7 0 -13 -4 -23 -10 -23 -5 0 -6 7 -3 17 4 10 2 14 -4 10 -6 -4 -16 -1
-22 7 -9 11 -9 15 1 19 7 2 16 -1 21 -7 5 -8 10 -6 17 4z m6525 0 c-16 -4 -24
-8 -17 -9 17 -2 15 -28 -4 -35 -9 -3 -28 -6 -42 -6 l-27 -1 25 -14 c25 -14 25
-14 3 -15 -13 0 -23 5 -23 11 0 5 -6 7 -12 3 -9 -5 -9 -2 1 9 7 9 23 17 35 17
11 0 28 5 36 10 12 8 11 11 -9 17 -23 6 -24 7 -5 14 10 4 30 7 44 7 23 0 22
-1 -5 -8z m72 4 c-3 -3 -12 -4 -19 -1 -8 3 -5 6 6 6 11 1 17 -2 13 -5z m222
-8 c-2 -2 -17 -6 -34 -10 -22 -5 -26 -4 -15 4 14 9 59 15 49 6z m56 -16 c3 -5
-3 -10 -14 -10 -12 0 -21 5 -21 10 0 6 6 10 14 10 8 0 18 -4 21 -10z m195 -11
c0 -4 -13 -12 -30 -19 -16 -7 -35 -18 -41 -26 -6 -8 -16 -14 -22 -14 -6 0 4
11 23 25 l34 25 -55 2 -54 1 55 7 c69 8 90 7 90 -1z m-251 -5 c36 -8 41 -19 9
-21 -37 -2 -69 7 -63 17 7 12 12 12 54 4z m-6862 -26 c-3 -8 -6 -5 -6 6 -1 11
2 17 5 13 3 -3 4 -12 1 -19z m6447 13 c3 -5 -5 -8 -18 -7 -13 0 -22 4 -19 9 6
10 31 9 37 -2z m574 -8 c-10 -2 -18 -9 -18 -15 0 -6 -3 -9 -6 -5 -10 10 6 27
24 26 15 -1 15 -2 0 -6z m-6920 -28 c-3 -3 -9 2 -12 12 -6 14 -5 15 5 6 7 -7
10 -15 7 -18z m6282 10 c-7 -8 -17 -15 -23 -15 -6 0 -2 7 9 15 25 19 30 19 14
0z m226 -3 c-21 -2 -42 0 -47 5 -4 4 13 6 39 3 l47 -5 -39 -3z m369 9 c-3 -6
2 -14 11 -19 15 -8 14 -10 -2 -16 -10 -4 -15 -4 -11 0 4 4 2 13 -4 20 -9 11
-16 11 -41 -2 -17 -9 -27 -11 -24 -5 4 6 3 11 -3 11 -5 0 -12 -5 -14 -10 -3
-6 -4 -5 -3 2 1 7 13 14 25 14 12 1 24 4 28 8 10 10 45 7 38 -3z m-6963 -33
c-7 -7 -12 -8 -12 -2 0 14 12 26 19 19 2 -3 -1 -11 -7 -17z m6808 18 c0 -3 -4
-8 -10 -11 -5 -3 -10 -1 -10 4 0 6 5 11 10 11 6 0 10 -2 10 -4z m-420 -21 c61
-2 67 -4 51 -14 -8 -5 -30 -7 -49 -4 -32 6 -34 4 -27 -16 5 -16 2 -21 -10 -21
-11 0 -15 5 -11 15 3 8 -2 19 -12 24 -9 6 -12 11 -7 11 6 0 3 5 -5 11 -12 9
-11 9 5 3 11 -4 40 -8 65 -9z m-6341 -12 c1 9 8 17 16 17 10 0 14 -9 12 -30
-2 -27 -17 -45 -17 -20 0 6 -6 10 -14 10 -15 0 -28 24 -18 35 3 3 10 -2 13
-12 7 -17 8 -17 8 0z m63 -8 c-2 -9 1 -15 5 -12 5 3 14 -3 21 -14 7 -10 8 -19
3 -19 -6 0 -13 5 -16 10 -4 6 -10 8 -14 5 -5 -2 -8 6 -7 18 1 12 -3 26 -9 30
-6 5 -4 7 5 4 8 -2 14 -12 12 -22z m6195 5 c10 -13 8 -16 -6 -17 -14 -1 -17 4
-14 18 3 11 6 18 7 17 1 -2 7 -10 13 -18z m631 -5 c-3 -3 -9 2 -12 12 -6 14
-5 15 5 6 7 -7 10 -15 7 -18z m-658 5 c0 -5 -5 -10 -11 -10 -5 0 -7 5 -4 10 3
6 8 10 11 10 2 0 4 -4 4 -10z m-53 -22 c-16 -6 -24 -14 -20 -21 3 -7 3 -9 -2
-5 -12 11 -35 -11 -29 -27 3 -7 1 -16 -4 -19 -8 -5 -9 14 -3 46 2 11 53 37 71
37 8 0 3 -5 -13 -11z m683 2 c-8 -5 -19 -10 -25 -10 -5 0 -3 5 5 10 8 5 20 10
25 10 6 0 3 -5 -5 -10z m-625 -10 c3 -5 2 -10 -4 -10 -5 0 -13 5 -16 10 -3 6
-2 10 4 10 5 0 13 -4 16 -10z m-6256 -37 c0 -25 -1 -25 -8 -8 -5 11 -7 23 -4
28 8 14 13 7 12 -20z m6734 21 c14 -5 14 -8 -1 -24 -8 -11 -20 -17 -24 -14 -5
3 -1 13 9 21 17 13 16 14 -10 8 -19 -4 -26 -2 -22 5 7 11 26 13 48 4z m66 -19
c-24 -12 -46 -19 -49 -17 -3 3 1 7 8 9 6 3 10 8 7 13 -3 4 5 6 17 3 18 -4 20
-2 8 6 -11 7 -6 10 20 9 l34 -1 -45 -22z m-6775 0 c-4 -8 -8 -15 -10 -15 -2 0
-4 7 -4 15 0 8 4 15 10 15 5 0 7 -7 4 -15z m6173 -29 c1 -36 -1 -44 -13 -39
-9 3 -13 12 -8 22 3 9 7 25 9 36 5 41 10 34 12 -19z m-6119 -9 c-7 -14 -13
-16 -21 -8 -7 7 -14 7 -23 0 -7 -6 -14 -6 -18 -1 -3 6 1 15 9 22 8 7 15 9 15
6 0 -4 7 0 16 9 21 21 38 0 22 -28z m61 2 c-5 -10 -12 -19 -15 -19 -2 0 0 8 5
18 7 13 6 23 -2 32 -10 12 -9 12 5 1 14 -10 15 -18 7 -32z m6022 -2 c-10 -9
-11 -8 -5 6 3 10 9 15 12 12 3 -3 0 -11 -7 -18z m-46 3 c-3 -5 2 -10 12 -10
15 0 16 -2 3 -10 -9 -6 -17 -5 -22 3 -6 11 -2 27 8 27 3 0 2 -4 -1 -10z m475
0 c18 -12 2 -12 -25 0 -13 6 -15 9 -5 9 8 0 22 -4 30 -9z m145 0 c-3 -5 -12
-10 -18 -10 -7 0 -6 4 3 10 19 12 23 12 15 0z m-6540 -10 c19 -8 19 -9 1 -9
-15 -1 -16 -4 -7 -15 8 -10 9 -16 1 -21 -5 -3 -10 -11 -10 -18 0 -6 17 5 38
23 29 28 27 25 -8 -13 -24 -26 -49 -47 -54 -47 -5 0 -1 7 10 15 13 10 14 14 5
15 -10 0 -11 3 -2 14 14 16 11 47 -4 58 -14 10 4 9 30 -2z m-104 -23 c-6 -8
-8 -17 -4 -21 4 -4 0 -4 -10 0 -14 5 -15 9 -6 20 6 8 16 14 21 14 7 0 6 -5 -1
-13z m64 -24 c-8 -17 -11 -25 -14 -38 -3 -15 -40 18 -38 34 0 11 4 18 8 15 4
-2 12 3 19 12 17 19 36 2 25 -23z m6305 33 c0 -3 -4 -8 -10 -11 -5 -3 -10 -1
-10 4 0 6 5 11 10 11 6 0 10 -2 10 -4z m110 -11 c19 -7 28 -14 20 -14 -11 -1
-12 -3 -3 -9 9 -5 6 -12 -10 -21 -20 -13 -21 -13 -8 2 12 15 11 17 -8 17 -11
0 -20 -3 -20 -7 3 -17 -1 -33 -8 -33 -5 0 -9 11 -9 25 -2 21 3 25 25 25 l26 1
-30 14 c-39 17 -21 18 25 0z m110 11 c0 -3 -4 -8 -10 -11 -5 -3 -10 -1 -10 4
0 6 5 11 10 11 6 0 10 -2 10 -4z m-6251 -50 c24 -25 41 -50 38 -58 -3 -8 -6
-5 -6 7 -1 17 -3 18 -12 5 -9 -13 -10 -13 -6 1 3 10 -5 26 -19 40 -24 23 -34
14 -11 -11 6 -7 0 -5 -15 6 -21 16 -23 20 -10 25 14 5 14 7 -3 17 -11 6 -15
12 -10 12 6 0 30 -20 54 -44z m5626 24 c-3 -5 -12 -10 -18 -10 -7 0 -6 4 3 10
19 12 23 12 15 0z m72 -3 c7 0 10 -4 7 -9 -3 -4 -14 -4 -24 2 -13 7 -21 7 -25
0 -3 -5 -11 -10 -17 -10 -6 0 -6 6 2 15 8 9 20 13 29 9 9 -3 21 -7 28 -7z
m513 3 c-8 -5 -19 -10 -25 -10 -5 0 -3 5 5 10 8 5 20 10 25 10 6 0 3 -5 -5
-10z m-6289 -9 c-11 -7 -9 -10 8 -16 12 -3 19 -11 16 -16 -4 -5 -17 -1 -30 8
-22 17 -17 33 10 33 6 0 4 -4 -4 -9z m5654 -15 c-11 -7 -31 -16 -45 -20 -18
-5 -15 -1 10 13 41 22 63 27 35 7z m-5695 -5 c0 -5 -10 -11 -22 -14 -22 -6
-22 -6 -4 8 23 17 26 18 26 6z m5790 -6 c0 -17 -2 -18 -25 -9 -13 5 -14 8 -3
15 19 13 28 11 28 -6z m72 -13 c-19 -6 -44 6 -37 18 4 7 14 6 28 -2 14 -7 17
-13 9 -16z m-138 10 c2 -4 -5 -9 -17 -9 -17 -2 -19 0 -7 7 18 12 18 12 24 2z
m-5695 -6 c-2 -2 -15 -9 -29 -15 -24 -11 -24 -11 -6 3 16 13 49 24 35 12z
m5620 -22 c13 -12 -8 -10 -29 2 l-25 15 25 -7 c14 -3 27 -8 29 -10z m457 5 c4
-8 9 -7 15 2 7 11 9 10 9 -4 0 -10 5 -15 10 -12 6 3 10 2 10 -3 0 -6 -7 -13
-16 -16 -24 -9 -31 -7 -14 4 13 8 12 10 -2 10 -10 0 -18 4 -18 9 0 5 -8 12
-17 14 -16 4 -16 5 -1 6 9 0 20 -4 24 -10z m-6156 -14 c-7 -8 -18 -15 -24 -15
-6 0 -2 7 8 15 25 19 32 19 16 0z m5625 5 c-3 -5 -11 -10 -16 -10 -6 0 -7 5
-4 10 3 6 11 10 16 10 6 0 7 -4 4 -10z m25 -20 c-8 -5 -24 -9 -35 -9 -16 1
-16 2 5 9 35 11 48 11 30 0z m310 0 c0 -5 -4 -10 -10 -10 -5 0 -10 5 -10 10 0
6 5 10 10 10 6 0 10 -4 10 -10z m-437 -7 c-13 -2 -33 -2 -45 0 -13 2 -3 4 22
4 25 0 35 -2 23 -4z m177 -12 c0 -14 -5 -18 -20 -14 -19 5 -20 6 -3 19 23 17
23 17 23 -5z m-5479 -2 c-14 -5 -32 -15 -40 -22 -12 -10 -12 -9 0 11 9 14 23
22 39 21 l25 0 -24 -10z m5929 7 c0 -11 -19 -15 -25 -6 -3 5 1 10 9 10 9 0 16
-2 16 -4z m-735 -16 c3 -5 1 -10 -4 -10 -6 0 -11 5 -11 10 0 6 2 10 4 10 3 0
8 -4 11 -10z m62 4 c-3 -3 -12 -4 -19 -1 -8 3 -5 6 6 6 11 1 17 -2 13 -5z
m169 -7 c4 -4 0 -7 -9 -7 -9 0 -17 -5 -17 -10 0 -6 -13 -9 -30 -8 -21 2 -30 7
-30 20 0 14 7 17 39 15 22 -1 43 -6 47 -10z m-5346 -7 c0 -5 -2 -10 -4 -10 -3
0 -8 5 -11 10 -3 6 -1 10 4 10 6 0 11 -4 11 -10z m-266 -15 c11 -8 18 -17 15
-19 -2 -2 -15 4 -28 15 -27 22 -15 26 13 4z m61 -24 c2 -27 0 -29 -16 -20 -22
11 -26 21 -6 13 8 -3 14 2 14 11 0 10 -6 14 -15 10 -12 -5 -13 -3 -2 10 16 19
22 14 25 -24z m5895 29 c-8 -5 -22 -9 -30 -9 -10 0 -8 3 5 9 27 12 43 12 25 0z
m80 0 c-8 -5 -19 -10 -25 -10 -5 0 -3 5 5 10 8 5 20 10 25 10 6 0 3 -5 -5 -10z
m-5742 -7 c-11 -3 -17 -12 -15 -23 4 -27 15 -36 22 -18 5 13 12 14 45 4 21 -6
42 -15 47 -20 5 -5 0 -6 -12 -2 -41 15 -78 19 -72 8 9 -14 -41 -8 -56 7 -8 8
-6 11 9 11 16 0 15 3 -8 18 l-26 17 41 1 c23 0 34 -1 25 -3z m5023 -2 c-18
-12 -23 -41 -8 -41 7 0 5 -4 -3 -9 -17 -10 -56 -8 -66 2 -4 4 -1 7 7 7 11 0
11 2 -1 10 -8 5 -10 10 -4 10 5 0 14 -4 20 -10 6 -6 15 -6 24 0 13 9 13 10 0
10 -11 1 -10 4 4 15 11 8 25 15 30 15 6 0 5 -4 -3 -9z m78 -5 c9 -11 7 -13
-11 -11 -30 3 -30 3 -23 15 9 14 20 13 34 -4z m-5169 -6 c13 -8 12 -10 -5 -11
-11 -1 -25 -1 -32 0 -6 1 -14 -3 -18 -9 -8 -13 -25 -13 -25 0 0 10 34 28 55
29 6 0 17 -4 25 -9z m115 0 c3 -6 -1 -7 -9 -4 -18 7 -21 14 -7 14 6 0 13 -4
16 -10z m5005 0 c0 -5 -5 -10 -11 -10 -5 0 -7 5 -4 10 3 6 8 10 11 10 2 0 4
-4 4 -10z m515 0 c-27 -12 -43 -12 -25 0 8 5 22 9 30 9 10 0 8 -3 -5 -9z
m-5455 -16 c0 -2 -12 -4 -26 -4 -14 0 -23 4 -20 9 6 8 46 4 46 -5z m5538 7
c11 -6 10 -10 -4 -15 -10 -4 -24 0 -33 9 -14 13 -13 15 4 15 11 0 26 -4 33 -9z
m-813 -10 c-3 -5 3 -11 12 -14 17 -4 17 -4 -1 -12 -12 -5 -21 -3 -26 6 -7 10
-19 11 -59 3 -28 -6 -51 -7 -51 -3 0 5 40 15 123 28 5 0 6 -3 2 -8z m-4612 -8
c-7 -2 -21 -2 -30 0 -10 3 -4 5 12 5 17 0 24 -2 18 -5z m-390 -44 c-5 -5 -17
-3 -29 6 -16 12 -16 14 -1 9 12 -4 17 -1 17 12 1 18 1 18 11 1 7 -12 7 -23 2
-28z m460 3 c17 -19 17 -20 -8 -24 -19 -4 -23 -2 -15 7 15 18 -16 40 -54 38
l-31 -2 30 8 c34 8 52 2 78 -27z m4637 30 c0 -4 -9 -8 -19 -8 -11 0 -17 4 -15
8 3 4 12 8 20 8 8 0 14 -4 14 -8z m-4746 -17 c3 -8 1 -15 -4 -15 -6 0 -10 4
-10 9 0 5 -12 12 -27 14 -27 4 -27 4 3 6 20 0 34 -5 38 -14z m-277 -9 c0 -8
-6 -12 -15 -8 -10 3 -13 1 -8 -6 11 -18 0 -14 -15 5 -8 9 -9 14 -4 11 6 -4 17
-3 25 3 8 5 15 9 16 9 0 0 1 -6 1 -14z m5553 5 c0 5 7 9 15 9 8 0 15 -4 15
-10 0 -5 8 -10 18 -11 14 0 14 -2 -3 -9 -28 -12 -43 -12 -25 1 11 7 6 9 -21 5
-23 -4 -43 0 -55 9 -17 12 -15 13 19 5 21 -4 37 -4 37 1z m90 -3 c0 -4 -4 -8
-9 -8 -6 0 -12 4 -15 8 -3 5 1 9 9 9 8 0 15 -4 15 -9z m-907 -5 c-7 -2 -19 -2
-25 0 -7 3 -2 5 12 5 14 0 19 -2 13 -5z m747 -8 c11 -13 10 -14 -4 -9 -9 3
-16 10 -16 15 0 13 6 11 20 -6z m-803 -1 c-3 -3 -12 -4 -19 -1 -8 3 -5 6 6 6
11 1 17 -2 13 -5z m650 0 c-3 -3 -12 -4 -19 -1 -8 3 -5 6 6 6 11 1 17 -2 13
-5z m-5316 -27 c-10 -9 -11 -8 -5 6 3 10 9 15 12 12 3 -3 0 -11 -7 -18z m79
13 c0 -5 -2 -10 -4 -10 -3 0 -8 5 -11 10 -3 6 -1 10 4 10 6 0 11 -4 11 -10z
m4567 0 c10 0 14 -6 10 -20 -4 -15 0 -19 15 -17 12 1 22 -4 24 -11 1 -8 0 -8
-3 -1 -4 8 -8 7 -14 -2 -6 -11 -12 -10 -28 5 -11 10 -24 16 -28 13 -5 -3 -15
-1 -23 4 -11 8 -6 9 18 6 37 -4 42 5 10 19 -13 6 -17 9 -10 7 8 -2 21 -3 29
-3z m753 -11 c0 -13 -22 -23 -29 -13 -3 5 -12 9 -18 10 -42 3 -47 6 -23 13 29
8 70 3 70 -10z m-5015 -9 c3 -5 11 -10 16 -10 6 0 7 5 3 11 -4 8 -1 8 12 1 38
-21 88 -62 75 -62 -8 0 -11 -7 -8 -19 3 -14 1 -18 -9 -14 -15 5 -14 24 1 35 6
5 6 8 -2 8 -7 0 -16 -7 -21 -15 -7 -14 -11 -13 -28 6 -10 12 -14 19 -8 16 7
-4 14 0 18 8 7 19 -2 23 -44 20 -41 -3 -58 4 -39 16 18 11 26 11 34 -1z m4185
1 c-8 -5 -26 -11 -40 -15 -21 -5 -20 -3 5 9 32 15 60 20 35 6z m920 -1 c8 -5
11 -10 5 -10 -5 0 -17 5 -25 10 -8 5 -10 10 -5 10 6 0 17 -5 25 -10z m-5500
-10 c8 -5 12 -11 10 -14 -3 -2 -14 2 -24 10 -22 15 -10 19 14 4z m4736 -27
c-10 -10 -19 5 -10 18 6 11 8 11 12 0 2 -7 1 -15 -2 -18z m-4660 0 c-3 -17 -8
-19 -38 -14 -10 1 24 27 39 31 1 0 0 -8 -1 -17z m5167 11 c7 -8 -3 -34 -13
-34 -5 0 -8 9 -7 20 1 20 8 25 20 14z m79 -26 c17 -17 18 -20 4 -15 -10 4 -25
7 -34 8 -12 0 -13 2 -3 6 11 5 11 7 0 14 -10 6 -11 9 -1 9 6 0 22 -10 34 -22z
m-5182 2 c0 -5 -2 -10 -4 -10 -3 0 -8 5 -11 10 -3 6 -1 10 4 10 6 0 11 -4 11
-10z m30 0 c0 -5 -2 -10 -4 -10 -3 0 -8 5 -11 10 -3 6 -1 10 4 10 6 0 11 -4
11 -10z m4301 -4 c-18 -10 -20 -15 -10 -19 11 -5 11 -6 -1 -5 -19 1 -87 -28
-95 -42 -3 -5 -4 -10 -1 -10 2 0 12 -3 22 -7 14 -5 16 -3 11 13 -7 18 -6 18 8
-1 18 -23 16 -46 -4 -53 -8 -3 -11 0 -7 6 8 13 -10 25 -42 28 -28 3 -43 14
-19 14 10 0 17 4 17 9 0 5 17 17 38 26 20 10 48 26 61 36 13 11 29 19 35 19 6
-1 0 -7 -13 -14z m906 -2 c-3 -3 -12 -4 -19 -1 -8 3 -5 6 6 6 11 1 17 -2 13
-5z m-5276 -21 c13 -16 12 -17 -3 -4 -10 7 -18 15 -18 17 0 8 8 3 21 -13z
m4397 -14 c-3 -8 -7 -3 -11 10 -4 17 -3 21 5 13 5 -5 8 -16 6 -23z m-4358 12
c0 -6 -4 -12 -8 -15 -5 -3 -9 1 -9 9 0 8 4 15 9 15 4 0 8 -4 8 -9z m296 -3 c4
-7 4 -10 -1 -6 -4 4 -13 1 -19 -8 -15 -19 -96 -32 -96 -15 0 8 11 11 28 9 16
-2 34 4 45 15 20 20 33 22 43 5z m159 -16 c-6 -7 -55 11 -50 18 3 5 16 3 29
-3 14 -7 23 -13 21 -15z m4055 8 c11 -7 4 -10 -27 -10 -24 0 -43 5 -43 10 0
13 50 13 70 0z m645 0 c-11 -5 -27 -9 -35 -9 -9 0 -8 4 5 9 11 5 27 9 35 9 9
0 8 -4 -5 -9z m-4310 -14 c37 -16 41 -22 24 -46 -9 -13 -10 -12 -5 3 3 11 0
17 -10 17 -9 0 -12 -5 -8 -12 4 -7 3 -8 -5 -4 -9 6 -9 11 0 22 14 17 22 15
-121 24 l-115 7 103 1 c70 1 113 -3 137 -12z m4035 -15 c0 -30 -16 -33 -28 -6
-10 22 -9 25 8 25 13 0 20 -7 20 -19z m83 -7 l32 -27 -35 7 c-26 5 -31 4 -20
-3 8 -6 10 -11 4 -11 -18 0 -37 28 -30 45 7 20 13 19 49 -11z m132 18 c-3 -3
-22 -6 -42 -7 -21 -1 -37 -6 -36 -12 1 -7 -7 -9 -20 -5 -18 5 -19 7 -4 10 9 2
17 7 17 11 0 4 20 8 45 8 25 0 43 -3 40 -5z m-4302 -12 c-4 -4 -51 -4 -103 0
l-95 7 103 0 c56 0 99 -3 95 -7z m-637 -12 c4 -7 3 -8 -4 -4 -7 4 -12 2 -12
-4 0 -6 -4 -9 -9 -5 -5 3 -12 1 -16 -5 -8 -12 -42 -13 -49 -1 -3 4 6 6 19 3
14 -2 25 0 25 7 0 5 -8 8 -17 5 -12 -4 -14 -3 -6 3 18 13 61 14 69 1z m567
-15 c-24 -2 -62 -2 -85 0 -24 2 -5 4 42 4 47 0 66 -2 43 -4z m198 -10 c13 -17
13 -17 -6 -3 -11 8 -22 16 -24 17 -2 2 0 3 6 3 6 0 17 -8 24 -17z m3232 11
c-7 -3 -9 -13 -6 -22 4 -13 3 -14 -5 -3 -5 7 -16 10 -23 7 -8 -4 -5 0 5 8 11
9 25 16 30 15 6 0 6 -3 -1 -5z m615 -4 c2 0 1 -4 -2 -9 -3 -4 -24 -5 -46 -1
-21 4 -37 3 -34 -1 3 -5 -2 -9 -10 -9 -9 0 -13 6 -10 15 5 12 43 14 102 5z
m-3869 -26 c2 -2 -5 -4 -15 -4 -11 0 -25 -5 -31 -11 -8 -8 -13 -7 -18 2 -5 8
-4 10 3 5 7 -4 12 -2 12 4 0 8 -11 10 -32 6 -25 -5 -28 -4 -13 3 18 8 83 5 94
-5z m3201 6 c0 -5 -7 -10 -16 -10 -8 0 -12 5 -9 10 3 6 10 10 16 10 5 0 9 -4
9 -10z m115 0 c3 -6 -4 -9 -19 -8 -13 1 -22 6 -20 10 7 11 32 10 39 -2z m666
-6 c21 6 22 5 6 -4 -21 -13 -47 -6 -47 12 0 10 2 10 9 -1 5 -8 17 -11 32 -7z
m-4666 -23 c-6 -5 -25 10 -25 20 0 5 6 4 14 -3 8 -7 12 -15 11 -17z m65 -8 c0
-13 -3 -13 -15 -3 -8 7 -15 16 -15 21 0 5 7 6 15 3 8 -4 15 -13 15 -21z m689
14 c8 -10 7 -14 -4 -14 -8 0 -12 4 -9 8 2 4 -2 10 -8 12 -8 4 -9 6 -2 6 6 1
17 -5 23 -12z m3064 6 c-7 -2 -19 -2 -25 0 -7 3 -2 5 12 5 14 0 19 -2 13 -5z
m613 -15 c-3 -13 -6 -26 -6 -30 0 -5 -7 -8 -16 -8 -8 0 -12 5 -8 11 3 6 0 16
-7 21 -11 7 -9 8 5 4 13 -5 17 -2 12 9 -3 9 0 15 10 15 12 0 15 -6 10 -22z
m99 12 c3 -5 2 -10 -4 -10 -5 0 -13 5 -16 10 -3 6 -2 10 4 10 5 0 13 -4 16
-10z m80 0 c13 -6 15 -9 5 -9 -8 0 -22 4 -30 9 -18 12 -2 12 25 0z m-4645 -10
c8 -5 12 -11 10 -14 -3 -2 -14 2 -24 10 -22 15 -10 19 14 4z m614 1 c3 -5 -1
-12 -10 -15 -20 -8 -29 -1 -19 13 8 13 22 14 29 2z m3211 -1 c25 -11 -1 -11
-35 0 -20 6 -21 8 -5 8 11 0 29 -3 40 -8z m-82 -7 c-7 -2 -19 -2 -25 0 -7 3
-2 5 12 5 14 0 19 -2 13 -5z m797 -3 c0 -5 -8 -10 -17 -11 -17 0 -17 -1 0 -8
14 -5 9 -9 -22 -17 -22 -6 -38 -7 -35 -3 3 5 13 9 22 9 13 0 14 2 3 9 -12 8 0
16 47 30 1 1 2 -3 2 -9z m-3784 -9 c-3 -5 1 -14 9 -21 11 -9 15 -9 15 -1 0 7
5 9 11 5 8 -4 8 -9 0 -17 -7 -7 -16 -5 -31 8 -17 15 -19 35 -4 35 3 0 3 -4 0
-9z m2927 -1 c-4 -4 -26 -10 -48 -13 l-40 -6 35 13 c38 14 65 17 53 6z m892 0
c-3 -5 -12 -10 -18 -10 -7 0 -6 4 3 10 19 12 23 12 15 0z m-829 -7 c-3 -4 4
-13 16 -20 l23 -12 -22 -1 c-13 0 -23 5 -23 11 0 8 -4 8 -12 2 -16 -13 -48
-13 -48 0 0 5 6 7 13 4 7 -3 21 1 32 9 20 15 33 19 21 7z m87 0 c-7 -2 -19 -2
-25 0 -7 3 -2 5 12 5 14 0 19 -2 13 -5z m102 -2 c3 -6 -4 -9 -15 -8 -11 1 -20
5 -20 9 0 11 28 10 35 -1z m-3865 -11 c8 -5 11 -10 5 -10 -5 0 -17 5 -25 10
-8 5 -10 10 -5 10 6 0 17 -5 25 -10z m4007 -12 c-3 -8 -6 -5 -6 6 -1 11 2 17
5 13 3 -3 4 -12 1 -19z m-3245 -24 c-9 -16 -10 -14 -9 8 1 15 6 23 11 18 4 -4
4 -16 -2 -26z m2823 26 c-3 -5 -12 -10 -18 -10 -7 0 -6 4 3 10 19 12 23 12 15
0z m178 3 c-7 -2 -21 -2 -30 0 -10 3 -4 5 12 5 17 0 24 -2 18 -5z m-273 -7 c0
-2 -7 -7 -16 -10 -8 -3 -12 -2 -9 4 6 10 25 14 25 6z m343 -3 c-7 -2 -21 -2
-30 0 -10 3 -4 5 12 5 17 0 24 -2 18 -5z m-3710 -24 c5 -3 2 -9 -5 -12 -9 -3
-14 3 -15 15 -1 11 1 16 5 12 4 -5 11 -12 15 -15z m53 6 c-3 -8 -2 -15 2 -16
42 -4 60 -14 47 -26 -4 -5 -10 -2 -13 6 -2 8 -7 9 -11 3 -12 -19 -47 -22 -67
-6 -18 14 -18 15 4 4 15 -7 28 -8 40 -1 15 9 14 10 -6 11 -20 0 -21 3 -12 20
12 23 25 27 16 5z m4014 0 c6 -3 10 -11 10 -17 0 -7 -4 -7 -12 0 -7 5 -29 8
-48 7 -19 -1 -41 2 -47 7 -7 6 -24 7 -39 4 -16 -4 -23 -3 -19 3 6 11 137 7
155 -4z m90 -3 c15 -6 19 -11 9 -11 -9 -1 -19 2 -22 6 -4 3 -18 7 -31 9 -19 2
-24 -1 -19 -14 4 -15 3 -15 -6 -2 -6 8 -11 18 -11 22 0 10 48 4 80 -10z m60 2
c0 -2 -7 -4 -15 -4 -8 0 -15 4 -15 10 0 5 7 7 15 4 8 -4 15 -8 15 -10z m-900
-4 c-8 -5 -22 -9 -30 -9 -10 0 -8 3 5 9 27 12 43 12 25 0z m-2645 -33 c1 -14
-3 -23 -8 -20 -4 3 -6 12 -2 21 3 8 0 19 -7 24 -10 7 -9 9 2 5 8 -2 15 -15 15
-30z m2595 14 c0 -5 -10 -13 -22 -17 -19 -6 -19 -7 -5 -16 10 -5 17 -14 17
-19 0 -6 -7 -3 -16 6 -11 11 -26 14 -48 11 l-31 -6 30 12 c17 6 39 17 50 24
23 17 25 17 25 5z m742 2 c-6 -2 -10 -9 -6 -14 3 -5 1 -9 -5 -9 -5 0 -12 4
-15 9 -6 9 10 19 29 19 6 0 4 -2 -3 -5z m125 1 c-3 -3 -12 -4 -19 -1 -8 3 -5
6 6 6 11 1 17 -2 13 -5z m-3494 -19 c4 -8 3 -16 -1 -19 -4 -3 -9 4 -9 15 -2
23 3 25 10 4z m3446 1 c-2 -2 -17 -6 -34 -10 -22 -5 -26 -4 -15 4 14 9 59 15
49 6z m-3353 -35 c25 -23 29 -31 18 -35 -8 -3 -13 -2 -9 3 3 5 -9 21 -26 35
-17 14 -27 26 -24 26 4 0 22 -13 41 -29z m2574 25 c0 -2 -7 -6 -15 -10 -8 -3
-15 -1 -15 4 0 6 7 10 15 10 8 0 15 -2 15 -4z m483 -6 c-13 -6 -33 -14 -45
-20 -19 -7 -17 -8 14 -5 21 2 42 6 47 9 5 4 13 1 17 -5 4 -7 3 -9 -4 -5 -6 3
-14 2 -17 -4 -4 -6 -15 -8 -26 -5 -11 4 -19 2 -19 -4 0 -6 5 -11 10 -11 6 0
10 -5 10 -12 0 -6 -3 -8 -7 -5 -3 4 -13 1 -21 -5 -11 -10 -16 -9 -23 5 -6 9
-22 17 -36 17 -20 0 -24 3 -16 11 9 9 18 8 37 -5 14 -9 31 -16 38 -16 21 0 -5
19 -47 34 l-40 14 39 -1 c22 -1 41 3 43 9 2 5 18 10 36 11 29 2 30 1 10 -7z
m-3623 -15 c-7 -9 -15 -13 -19 -10 -3 3 1 10 9 15 21 14 24 12 10 -5z m3760 4
c0 -6 7 -8 18 -4 13 5 14 4 5 -6 -10 -10 -15 -9 -28 1 -14 11 -19 7 -16 -12 0
-5 -6 -8 -14 -8 -13 0 -13 3 -3 20 14 21 38 27 38 9z m-3713 -5 c-3 -3 -12 -4
-19 -1 -8 3 -5 6 6 6 11 1 17 -2 13 -5z m21 -24 c-1 -16 -8 -32 -16 -35 -12
-4 -12 -3 -3 9 9 11 9 15 -1 18 -9 3 -9 8 2 21 19 21 19 22 18 -13z m53 7
c-13 -13 -26 -3 -16 12 3 6 11 8 17 5 6 -4 6 -10 -1 -17z m3319 19 c0 -3 -4
-8 -10 -11 -5 -3 -10 -1 -10 4 0 6 5 11 10 11 6 0 10 -2 10 -4z m255 -14 c-3
-3 -11 0 -18 7 -9 10 -8 11 6 5 10 -3 15 -9 12 -12z m-3688 -14 c-9 -6 -9 -8
2 -8 8 0 12 -2 9 -6 -3 -3 -21 1 -39 8 l-33 14 37 0 c22 0 32 -3 24 -8z m2920
-2 c-15 -7 -25 -14 -23 -17 3 -3 -3 -5 -12 -5 -9 -1 -26 -4 -37 -8 -11 -3 3 5
30 19 28 13 55 24 60 24 6 0 -2 -6 -18 -13z m68 -8 c14 -6 25 -15 25 -20 0 -5
-9 -4 -19 2 -26 14 -61 13 -61 -2 0 -6 -3 -8 -7 -4 -5 4 1 14 11 22 24 17 19
17 51 2z m688 5 c-7 -2 -19 -2 -25 0 -7 3 -2 5 12 5 14 0 19 -2 13 -5z m-3563
-13 c0 -5 -5 -10 -11 -10 -5 0 -7 5 -4 10 3 6 8 10 11 10 2 0 4 -4 4 -10z
m520 -18 c-17 -6 0 -22 23 -22 18 0 19 2 7 10 -18 12 -2 12 25 0 17 -7 17 -9
3 -9 -10 -1 -18 -5 -18 -11 0 -15 -29 -12 -46 5 -9 8 -12 19 -9 25 3 5 1 10
-4 10 -6 0 -11 5 -11 10 0 6 8 5 20 -2 11 -7 16 -14 10 -16z m-204 -9 c-10
-10 -19 5 -10 18 6 11 8 11 12 0 2 -7 1 -15 -2 -18z m104 18 c0 -4 15 -7 33
-5 21 3 27 1 18 -5 -8 -5 -21 -7 -29 -3 -11 4 -13 2 -7 -8 6 -10 4 -12 -9 -7
-10 4 -20 7 -22 7 -2 0 -4 7 -4 15 0 8 5 15 10 15 6 0 10 -4 10 -9z m2290 -5
c0 -2 -9 -6 -20 -9 -11 -3 -18 -1 -14 4 5 9 34 13 34 5z m147 -2 c-3 -3 -12
-4 -19 -1 -8 3 -5 6 6 6 11 1 17 -2 13 -5z m220 -24 c0 -15 -1 -18 -4 -7 -3
10 -14 17 -28 17 -13 0 -26 4 -29 8 -3 5 10 8 28 8 27 -1 32 -5 33 -26z
m-3064 8 c-2 -5 1 -8 8 -8 7 0 10 -2 7 -6 -3 -3 -21 1 -39 9 l-34 14 32 -1
c17 -1 29 -4 26 -8z m2792 2 c3 -6 -1 -7 -9 -4 -18 7 -21 14 -7 14 6 0 13 -4
16 -10z m612 4 c-3 -3 -12 -4 -19 -1 -8 3 -5 6 6 6 11 1 17 -2 13 -5z m-3339
-21 c-2 -9 -10 -18 -18 -20 -12 -4 -13 -3 -1 5 7 5 10 15 7 21 -4 6 -2 11 4
11 6 0 10 -8 8 -17z m57 -13 c4 -6 -5 -5 -19 2 -14 6 -26 15 -26 20 0 10 36
-7 45 -22z m42 4 c-7 -7 -37 7 -37 17 0 6 9 5 21 -1 11 -7 19 -14 16 -16z
m2468 10 c-9 -9 -19 -13 -23 -10 -3 4 0 11 8 16 24 15 33 11 15 -6z m497 1
c14 -19 8 -23 -17 -12 -14 7 -25 16 -25 20 0 11 33 4 42 -8z m98 -2 c0 -7 5
-13 12 -13 6 0 8 -3 5 -6 -4 -4 -12 -2 -20 4 -7 6 -28 10 -47 9 -18 -1 -35 3
-37 8 -2 7 15 11 42 10 29 0 45 -4 45 -12z m133 10 c-7 -2 -21 -2 -30 0 -10 3
-4 5 12 5 17 0 24 -2 18 -5z m-2753 -13 c0 -5 -2 -10 -4 -10 -3 0 -8 5 -11 10
-3 6 -1 10 4 10 6 0 11 -4 11 -10z m780 6 c0 -2 -9 -6 -20 -9 -11 -3 -20 -1
-20 4 0 5 9 9 20 9 11 0 20 -2 20 -4z m79 -10 c21 -12 21 -14 6 -20 -17 -6
-17 -7 -1 -19 16 -12 16 -13 -3 -13 -12 0 -21 6 -21 12 0 7 -3 14 -7 17 -5 2
-3 2 4 1 7 -2 15 1 18 6 6 10 -7 14 -39 10 -11 -1 -15 3 -12 9 9 14 25 13 55
-3z m1836 4 c-3 -5 -10 -10 -16 -10 -5 0 -9 5 -9 10 0 6 7 10 16 10 8 0 12 -4
9 -10z m-2730 -19 c-3 -6 -11 -11 -16 -11 -5 0 -4 6 3 14 14 16 24 13 13 -3z
m2405 8 c0 -5 -9 -9 -20 -9 -11 0 -20 4 -20 8 0 4 9 8 20 9 11 1 20 -2 20 -8z
m-2327 -6 c-7 -2 -19 -2 -25 0 -7 3 -2 5 12 5 14 0 19 -2 13 -5z m635 0 c-16
-2 -40 -2 -55 0 -16 2 -3 4 27 4 30 0 43 -2 28 -4z m232 -4 c-11 -8 -6 -9 20
-5 22 4 30 3 21 -3 -7 -5 -10 -14 -7 -20 4 -6 0 -11 -9 -11 -9 0 -13 5 -9 11
4 8 0 9 -15 4 -15 -4 -21 -2 -21 8 0 16 9 27 24 27 6 0 4 -5 -4 -11z m1067 5
c-3 -3 -12 -4 -19 -1 -8 3 -5 6 6 6 11 1 17 -2 13 -5z m-2490 -10 c-3 -3 -12
-4 -19 -1 -8 3 -5 6 6 6 11 1 17 -2 13 -5z m583 -5 c-20 -8 -22 -12 -10 -20
13 -9 13 -10 0 -6 -8 2 -30 -2 -49 -9 -42 -18 -51 -18 -51 0 0 22 19 29 36 15
12 -10 15 -10 12 1 -2 8 9 17 27 21 45 10 63 9 35 -2z m510 1 c-17 -11 -10
-13 35 -11 20 1 26 -1 17 -7 -15 -10 -36 -9 -72 3 -24 7 -24 8 -5 16 28 11 43
10 25 -1z m1151 -8 c-13 -2 -27 0 -32 5 -6 6 3 7 23 4 28 -4 29 -6 9 -9z m202
11 c-7 -2 -21 -2 -30 0 -10 3 -4 5 12 5 17 0 24 -2 18 -5z m650 0 c-7 -2 -19
-2 -25 0 -7 3 -2 5 12 5 14 0 19 -2 13 -5z m-2463 -13 c-8 -5 -19 -10 -25 -10
-5 0 -3 5 5 10 8 5 20 10 25 10 6 0 3 -5 -5 -10z m557 4 c-3 -3 -12 -4 -19 -1
-8 3 -5 6 6 6 11 1 17 -2 13 -5z m38 -4 c3 -5 2 -10 -4 -10 -5 0 -13 5 -16 10
-3 6 -2 10 4 10 5 0 13 -4 16 -10z m58 -19 c-4 -16 -1 -19 15 -14 11 3 29 0
39 -6 19 -11 17 -11 -30 -15 -34 -3 -63 29 -46 51 15 17 28 8 22 -16z m1080
22 c-7 -2 -19 -2 -25 0 -7 3 -2 5 12 5 14 0 19 -2 13 -5z m177 -4 c-11 -7 -7
-9 17 -5 18 2 35 1 38 -4 3 -4 13 -6 23 -4 9 3 26 -2 37 -10 18 -14 18 -15 3
-16 -10 0 -18 5 -18 10 0 6 -4 10 -10 10 -5 0 -7 -8 -4 -17 5 -14 4 -15 -4 -4
-7 10 -14 10 -30 2 -11 -6 -27 -11 -34 -10 -7 0 0 6 16 13 16 8 24 16 18 20
-6 3 -13 2 -17 -4 -9 -15 -42 -12 -48 4 -6 16 1 26 17 26 6 0 4 -5 -4 -11z
m497 5 c-3 -3 -12 -4 -19 -1 -8 3 -5 6 6 6 11 1 17 -2 13 -5z m-2726 -17 c1
-7 1 -16 0 -21 -1 -4 4 -14 10 -22 9 -11 8 -14 -4 -14 -9 0 -17 10 -19 22 -2
12 -9 23 -17 26 -9 3 -11 0 -7 -7 4 -7 2 -18 -4 -26 -10 -12 -9 -15 5 -15 10
0 16 -2 13 -5 -3 -3 -19 -2 -37 1 -17 4 -29 9 -26 13 6 6 10 7 36 10 5 0 8 5
5 10 -10 16 4 37 24 38 11 1 21 -4 21 -10z m379 3 c0 -5 -4 -10 -9 -10 -6 0
-13 5 -16 10 -3 6 1 10 9 10 9 0 16 -4 16 -10z m650 1 c0 -5 -9 -7 -20 -4 -11
3 -20 7 -20 9 0 2 9 4 20 4 11 0 20 -4 20 -9z m201 -41 c-4 -12 -6 -12 -9 3
-2 9 -8 15 -13 12 -5 -3 -6 2 -2 11 5 13 3 15 -7 9 -9 -6 -11 -4 -6 4 11 17
45 -19 37 -39z m134 11 c1 -11 -2 -18 -7 -15 -5 4 -7 12 -4 20 3 7 1 16 -4 19
-6 4 -10 1 -10 -6 0 -7 -3 -10 -6 -6 -3 3 -3 11 1 17 10 16 28 -3 30 -29z
m525 31 c0 -4 -9 -8 -20 -8 -11 0 -20 4 -20 8 0 4 9 8 20 8 11 0 20 -4 20 -8z
m296 -4 c2 -3 -21 -6 -51 -7 -30 -1 -55 2 -55 7 0 8 97 8 106 0z m484 2 c0 -5
-7 -10 -15 -10 -8 0 -15 5 -15 10 0 6 7 10 15 10 8 0 15 -4 15 -10z m-2196
-19 c2 -3 -13 -6 -34 -6 -22 0 -36 4 -33 11 4 11 60 7 67 -5z m-575 5 c-2 -2
-22 -6 -44 -9 -28 -5 -34 -4 -20 3 19 8 73 14 64 6z m35 -4 c3 -5 -1 -9 -9 -9
-8 0 -12 4 -9 9 3 4 7 8 9 8 2 0 6 -4 9 -8z m759 1 c-7 -2 -19 -2 -25 0 -7 3
-2 5 12 5 14 0 19 -2 13 -5z m1712 -23 c2 -21 -29 -29 -40 -10 -3 6 1 7 9 4
12 -4 16 0 16 17 0 27 13 17 15 -11z m50 20 c-17 -7 -16 -9 10 -10 25 -1 27
-3 10 -9 -11 -4 -28 -6 -38 -3 -13 3 -15 7 -6 18 6 8 19 14 28 13 12 0 11 -2
-4 -9z m95 -2 c0 -5 -11 -8 -24 -8 -14 0 -27 3 -29 8 -3 4 8 7 24 7 16 0 29
-3 29 -7z m53 5 c-7 -2 -19 -2 -25 0 -7 3 -2 5 12 5 14 0 19 -2 13 -5z m-2543
-17 c-1 -5 4 -12 11 -17 8 -4 10 -11 6 -15 -9 -9 -37 15 -37 33 0 8 5 13 11
11 6 -2 10 -7 9 -12z m553 7 c-7 -2 -19 -2 -25 0 -7 3 -2 5 12 5 14 0 19 -2
13 -5z m1574 1 c-3 -3 -12 -4 -19 -1 -8 3 -5 6 6 6 11 1 17 -2 13 -5z m-2297
-14 c8 -5 11 -10 5 -10 -5 0 -17 5 -25 10 -8 5 -10 10 -5 10 6 0 17 -5 25 -10z
m575 0 c4 -6 -7 -10 -25 -10 -18 0 -29 4 -25 10 3 6 15 10 25 10 10 0 22 -4
25 -10z m260 4 c12 -5 13 -9 4 -14 -7 -5 18 -7 55 -5 36 2 69 -1 72 -6 3 -5
-26 -8 -66 -8 -38 1 -73 5 -76 10 -9 15 -74 11 -74 -5 0 -8 6 -17 13 -19 7 -4
6 -6 -4 -6 -19 -1 -31 20 -20 37 3 6 22 12 41 15 19 2 36 5 37 5 1 1 9 -1 18
-4z m581 -31 c-8 -15 -15 -25 -16 -21 0 12 23 58 27 54 3 -2 -2 -17 -11 -33z
m-157 18 c9 -6 10 -11 2 -15 -6 -4 -11 -2 -11 4 0 7 -7 10 -15 6 -8 -3 -15 -1
-15 4 0 12 20 13 39 1z m-559 -5 c0 -2 -7 -7 -16 -10 -8 -3 -12 -2 -9 4 6 10
25 14 25 6z m348 -3 c-10 -2 -26 -2 -35 0 -10 3 -2 5 17 5 19 0 27 -2 18 -5z
m446 -7 c-4 -9 3 -16 18 -19 13 -2 4 -4 -20 -4 -26 0 -41 5 -39 11 2 6 9 11
15 11 5 0 14 3 18 8 11 11 14 9 8 -7z m533 2 c2 -5 -102 -8 -231 -8 -162 0
-236 3 -236 11 0 12 459 9 467 -3z m-706 -25 c-12 -20 -14 -14 -5 12 4 9 9 14
11 11 3 -2 0 -13 -6 -23z m976 21 c-3 -3 -12 -4 -19 -1 -8 3 -5 6 6 6 11 1 17
-2 13 -5z m156 -1 c-7 -2 -21 -2 -30 0 -10 3 -4 5 12 5 17 0 24 -2 18 -5z
m-2300 -10 c-7 -2 -21 -2 -30 0 -10 3 -4 5 12 5 17 0 24 -2 18 -5z m305 -18
l20 -23 -24 2 c-13 0 -23 6 -21 13 1 6 -2 12 -8 12 -5 0 -8 -8 -7 -17 3 -13 1
-14 -12 -3 -8 7 -21 9 -28 5 -7 -4 -9 -3 -5 1 4 5 -3 15 -15 22 -21 11 -18 12
29 11 40 0 56 -5 71 -23z m191 9 c2 -2 -20 -4 -50 -4 -38 0 -50 -3 -39 -10 13
-9 13 -10 0 -10 -8 0 -22 4 -30 10 -13 8 -13 10 0 14 39 13 104 13 119 0z m61
6 c0 -5 -4 -10 -10 -10 -5 0 -10 5 -10 10 0 6 5 10 10 10 6 0 10 -4 10 -10z
m1658 3 c-10 -2 -26 -2 -35 0 -10 3 -2 5 17 5 19 0 27 -2 18 -5z m-324 -18
c-4 -8 -17 -13 -34 -12 -15 1 -26 6 -23 10 3 5 11 6 17 4 7 -3 19 -1 27 4 19
12 19 11 13 -6z m185 -6 c-19 -12 -62 -11 -55 0 3 5 15 7 26 4 12 -3 20 0 20
6 0 7 5 9 11 5 8 -4 7 -9 -2 -15z m56 11 c3 -5 -1 -10 -10 -10 -9 0 -13 5 -10
10 3 6 8 10 10 10 2 0 7 -4 10 -10z m-1998 -6 c-3 -3 -12 -4 -19 -1 -8 3 -5 6
6 6 11 1 17 -2 13 -5z m1001 -14 c-11 -17 -14 -18 -16 -5 -2 8 -8 13 -13 10
-5 -4 -9 -1 -9 4 0 6 11 11 25 11 23 0 24 -2 13 -20z m516 5 c14 -14 19 -14
47 0 17 9 28 12 24 6 -3 -6 4 -15 17 -20 22 -10 22 -10 -4 -8 -15 1 -24 5 -22
9 8 12 -8 9 -36 -7 -30 -17 -50 -19 -50 -4 0 5 6 7 13 4 6 -4 4 0 -5 8 -10 8
-15 17 -11 20 9 9 9 9 27 -8z m286 5 c-20 -13 -33 -13 -25 0 3 6 14 10 23 10
15 0 15 -2 2 -10z m67 4 c-3 -3 -12 -4 -19 -1 -8 3 -5 6 6 6 11 1 17 -2 13 -5z
m-1617 -32 c-7 -3 -19 3 -28 13 -16 15 -15 16 12 4 15 -7 23 -15 16 -17z m93
21 c-7 -2 -19 -2 -25 0 -7 3 -2 5 12 5 14 0 19 -2 13 -5z m1104 1 c-3 -3 -12
-4 -19 -1 -8 3 -5 6 6 6 11 1 17 -2 13 -5z m203 -4 c0 -5 -4 -10 -9 -10 -6 0
-13 5 -16 10 -3 6 1 10 9 10 9 0 16 -4 16 -10z m-1627 -7 c-7 -2 -19 -2 -25 0
-7 3 -2 5 12 5 14 0 19 -2 13 -5z m71 -14 c-3 -5 -14 -5 -25 1 -26 14 -24 18
6 12 14 -2 22 -8 19 -13z m256 -10 c0 -5 -4 -9 -10 -9 -5 0 -10 5 -10 11 0 6
-9 9 -20 6 -13 -3 -20 0 -20 8 0 11 6 12 30 4 17 -6 30 -15 30 -20z m30 21 c0
-5 -5 -10 -11 -10 -5 0 -7 5 -4 10 3 6 8 10 11 10 2 0 4 -4 4 -10z m143 3
c-13 -2 -33 -2 -45 0 -13 2 -3 4 22 4 25 0 35 -2 23 -4z m720 0 c-13 -2 -33
-2 -45 0 -13 2 -3 4 22 4 25 0 35 -2 23 -4z m600 0 c-7 -2 -19 -2 -25 0 -7 3
-2 5 12 5 14 0 19 -2 13 -5z m-882 -36 c-7 -7 -7 -14 1 -24 8 -11 7 -12 -6 -7
-19 7 -20 18 -4 47 8 15 13 18 16 9 2 -8 -1 -19 -7 -25z m59 26 c0 -5 -5 -15
-10 -23 -8 -12 -10 -11 -10 8 0 12 5 22 10 22 6 0 10 -3 10 -7z m427 1 c-3 -3
-12 -4 -19 -1 -8 3 -5 6 6 6 11 1 17 -2 13 -5z m311 -1 c-10 -2 -28 -2 -40 0
-13 2 -5 4 17 4 22 1 32 -1 23 -4z m-1587 -21 c-13 -2 -27 0 -32 5 -6 6 3 7
23 4 28 -4 29 -6 9 -9z m916 -14 c-3 -7 -5 -2 -5 12 0 14 2 19 5 13 2 -7 2
-19 0 -25z m563 22 c0 -5 -15 -10 -32 -9 -28 0 -30 2 -13 9 28 12 45 12 45 0z
m-1361 -16 c10 -9 -65 -3 -78 5 -10 6 1 8 30 4 24 -3 46 -7 48 -9z m247 9
c-10 -11 -76 -13 -76 -3 0 6 19 10 42 10 23 0 38 -3 34 -7z m724 -3 c0 -5 -18
-10 -40 -10 -22 0 -40 5 -40 10 0 6 18 10 40 10 22 0 40 -4 40 -10z m268 -7
c-10 -2 -26 -2 -35 0 -10 3 -2 5 17 5 19 0 27 -2 18 -5z m-1155 -10 c-7 -2
-21 -2 -30 0 -10 3 -4 5 12 5 17 0 24 -2 18 -5z m1040 0 c-13 -2 -35 -2 -50 0
-16 2 -5 4 22 4 28 0 40 -2 28 -4z m-839 -14 c-6 -10 -74 -9 -98 2 -15 5 -2 8
41 6 34 0 60 -4 57 -8z m656 1 c-33 -11 -92 -12 -86 -2 2 4 28 8 58 9 39 1 47
-1 28 -7z m-517 -7 c-7 -2 -19 -2 -25 0 -7 3 -2 5 12 5 14 0 19 -2 13 -5z
m185 -10 c-32 -2 -84 -2 -115 0 -32 2 -6 3 57 3 63 0 89 -1 58 -3z m1849 -289
c-3 -3 -12 -4 -19 -1 -8 3 -5 6 6 6 11 1 17 -2 13 -5z m-3030 -80 c-3 -3 -12
-4 -19 -1 -8 3 -5 6 6 6 11 1 17 -2 13 -5z m40 -10 c-3 -3 -12 -4 -19 -1 -8 3
-5 6 6 6 11 1 17 -2 13 -5z m28 -14 c-3 -5 -11 -10 -16 -10 -6 0 -7 5 -4 10 3
6 11 10 16 10 6 0 7 -4 4 -10z m92 -26 c-3 -3 -12 -4 -19 -1 -8 3 -5 6 6 6 11
1 17 -2 13 -5z m2280 0 c-3 -3 -12 -4 -19 -1 -8 3 -5 6 6 6 11 1 17 -2 13 -5z
m-2240 -10 c-3 -3 -12 -4 -19 -1 -8 3 -5 6 6 6 11 1 17 -2 13 -5z m2166 -1
c-7 -2 -19 -2 -25 0 -7 3 -2 5 12 5 14 0 19 -2 13 -5z m-2103 -19 c0 -2 -7 -4
-15 -4 -8 0 -15 4 -15 10 0 5 7 7 15 4 8 -4 15 -8 15 -10z m43 -11 c-7 -2 -19
-2 -25 0 -7 3 -2 5 12 5 14 0 19 -2 13 -5z m1904 1 c-3 -3 -12 -4 -19 -1 -8 3
-5 6 6 6 11 1 17 -2 13 -5z m-1854 -11 c-7 -2 -19 -2 -25 0 -7 3 -2 5 12 5 14
0 19 -2 13 -5z m1780 0 c-7 -2 -19 -2 -25 0 -7 3 -2 5 12 5 14 0 19 -2 13 -5z
m-1713 -7 c0 -2 -9 -6 -20 -9 -11 -3 -20 -1 -20 4 0 5 9 9 20 9 11 0 20 -2 20
-4z m1617 -2 c-3 -3 -12 -4 -19 -1 -8 3 -5 6 6 6 11 1 17 -2 13 -5z m-1544
-21 c-7 -2 -19 -2 -25 0 -7 3 -2 5 12 5 14 0 19 -2 13 -5z m1434 1 c-3 -3 -12
-4 -19 -1 -8 3 -5 6 6 6 11 1 17 -2 13 -5z m-1364 -11 c-7 -2 -21 -2 -30 0
-10 3 -4 5 12 5 17 0 24 -2 18 -5z m1280 0 c-7 -2 -19 -2 -25 0 -7 3 -2 5 12
5 14 0 19 -2 13 -5z m-1190 -10 c-13 -2 -33 -2 -45 0 -13 2 -3 4 22 4 25 0 35
-2 23 -4z m1085 0 c-10 -2 -28 -2 -40 0 -13 2 -5 4 17 4 22 1 32 -1 23 -4z
m-961 -9 c-3 -3 -12 -4 -19 -1 -8 3 -5 6 6 6 11 1 17 -2 13 -5z m790 0 c-3 -3
-12 -4 -19 -1 -8 3 -5 6 6 6 11 1 17 -2 13 -5z m-610 -21 c-20 -2 -52 -2 -70
0 -17 2 0 4 38 4 39 0 53 -2 32 -4z m441 0 c-16 -2 -40 -2 -55 0 -16 2 -3 4
27 4 30 0 43 -2 28 -4z"/>
<path d="M9115 8360 c-3 -5 1 -10 10 -10 9 0 13 5 10 10 -3 6 -8 10 -10 10 -2
0 -7 -4 -10 -10z"/>
<path d="M9116 8221 c-3 -5 0 -11 7 -14 8 -3 14 1 14 9 0 16 -13 19 -21 5z"/>
<path d="M9390 8185 c0 -13 69 -80 75 -73 3 2 -13 22 -35 43 -22 22 -40 35
-40 30z"/>
<path d="M7431 7344 c-127 -55 -185 -92 -273 -172 -82 -74 -102 -85 -209 -113
-46 -11 -89 -26 -95 -32 -8 -8 -9 -54 -4 -148 6 -123 10 -142 37 -200 17 -35
51 -85 75 -110 62 -63 175 -128 248 -141 74 -14 115 -2 203 59 34 24 118 81
187 127 131 87 175 128 212 199 21 39 23 54 22 212 0 179 -9 229 -47 286 -41
62 -79 79 -171 78 -73 0 -91 -4 -185 -45z"/>
<path d="M9063 6378 c-20 -40 -56 -118 -79 -173 -85 -204 -122 -280 -134 -280
-7 0 -21 23 -30 50 -20 57 -64 138 -84 154 -19 16 -46 3 -46 -22 0 -11 11 -39
24 -62 13 -22 34 -70 46 -105 28 -83 36 -97 59 -105 47 -14 96 37 144 150 94
224 131 307 158 358 34 65 35 100 2 105 -18 3 -28 -9 -60 -70z"/>
<path d="M9720 7770 c0 -5 5 -10 11 -10 5 0 7 5 4 10 -3 6 -8 10 -11 10 -2 0
-4 -4 -4 -10z"/>
<path d="M3120 6200 c-22 -18 -52 -32 -80 -36 -25 -3 -70 -12 -100 -19 -69
-17 -245 -43 -370 -55 -52 -5 -106 -12 -120 -15 -46 -11 -90 -60 -90 -102 0
-32 -14 -44 -41 -35 -33 13 -59 -1 -89 -46 -13 -20 -46 -60 -74 -89 -65 -68
-67 -100 -8 -154 38 -36 46 -39 98 -39 50 0 59 3 90 34 31 31 38 33 67 26 17
-5 96 -12 173 -14 119 -5 156 -2 230 14 49 11 127 27 174 34 47 8 105 23 130
35 25 11 50 21 57 21 6 0 50 18 97 40 47 22 93 40 103 40 32 0 137 57 171 93
20 20 32 43 30 53 -2 12 -30 33 -75 55 -40 19 -90 54 -111 76 -45 46 -164 113
-202 113 -14 0 -41 -14 -60 -30z"/>
<path d="M2135 5563 c-88 -21 -162 -58 -171 -85 -12 -39 27 -51 72 -22 28 19
124 44 170 44 44 0 63 24 39 50 -18 20 -61 25 -110 13z"/>
<path d="M2266 5418 c-37 -21 -162 -48 -226 -48 -78 0 -116 -19 -100 -51 22
-41 237 -17 362 41 32 15 43 37 27 56 -14 17 -37 17 -63 2z"/>
<path d="M7745 5136 c-33 -9 -40 -16 -40 -36 0 -21 5 -26 32 -28 26 -3 34 -9
43 -38 14 -42 53 -64 112 -64 63 1 108 45 108 107 0 57 -30 73 -129 72 -47 0
-104 -6 -126 -13z"/>
<path d="M1813 5072 c-35 -22 -39 -150 -7 -214 16 -32 61 -58 98 -58 40 0 86
48 93 96 6 49 -27 135 -65 164 -25 20 -95 27 -119 12z"/>
<path d="M1600 5003 c-71 -30 -66 -173 6 -173 10 0 25 -4 33 -9 27 -17 69 15
81 60 20 73 -4 118 -65 124 -22 3 -47 2 -55 -2z"/>
<path d="M1662 4723 c-86 -91 -152 -175 -152 -192 0 -10 8 -28 18 -40 15 -19
28 -22 104 -24 81 -2 89 0 113 23 13 14 26 39 27 55 1 17 13 40 26 53 21 20
24 30 19 70 -4 34 -12 53 -32 69 -40 35 -81 30 -123 -14z"/>
<path d="M6137 4148 c-44 -26 -60 -69 -46 -121 19 -71 74 -95 140 -61 51 26
86 134 59 185 -15 28 -102 26 -153 -3z"/>
<path d="M4700 3667 c-34 -17 -71 -119 -53 -145 7 -9 22 -37 33 -62 24 -52 63
-95 104 -117 86 -45 126 -31 126 44 0 36 5 51 25 69 14 13 25 32 25 42 0 23
-142 146 -194 167 -42 18 -35 18 -66 2z"/>
<path d="M3083 3854 c-12 -3 -44 -25 -70 -48 -59 -53 -73 -60 -148 -75 -67
-14 -494 -11 -533 3 -20 8 -30 1 -73 -44 -61 -65 -107 -157 -122 -244 -11 -65
-11 -68 11 -85 13 -9 29 -28 35 -41 29 -56 123 -88 170 -57 21 14 33 12 148
-18 300 -80 358 -73 598 69 110 65 177 127 186 173 3 15 11 45 17 65 6 22 8
65 5 103 -14 147 -48 195 -143 200 -33 2 -69 1 -81 -1z"/>
<path d="M8170 3750 c0 -5 5 -10 10 -10 6 0 10 5 10 10 0 6 -4 10 -10 10 -5 0
-10 -4 -10 -10z"/>
<path d="M7815 3500 c-8 -13 5 -13 25 0 13 8 13 10 -2 10 -9 0 -20 -4 -23 -10z"/>
<path d="M646 3087 c-17 -12 -17 -14 1 -27 10 -8 15 -11 11 -6 -4 5 -3 17 3
27 12 22 9 23 -15 6z"/>
<path d="M1470 2780 c0 -5 5 -10 10 -10 6 0 10 5 10 10 0 6 -4 10 -10 10 -5 0
-10 -4 -10 -10z"/>
<path d="M6080 2700 c0 -5 5 -10 11 -10 5 0 7 5 4 10 -3 6 -8 10 -11 10 -2 0
-4 -4 -4 -10z"/>
<path d="M9800 7853 c0 -15 18 -35 23 -27 3 5 -1 15 -9 22 -8 7 -14 9 -14 5z"/>
<path d="M9971 7554 c0 -11 3 -14 6 -6 3 7 2 16 -1 19 -3 4 -6 -2 -5 -13z"/>
<path d="M9348 5884 c-5 -4 -8 -17 -8 -30 0 -12 -6 -24 -12 -27 -9 -3 -10 -8
-2 -16 19 -20 41 9 35 47 -3 19 -9 30 -13 26z"/>
<path d="M9891 5454 c0 -11 3 -14 6 -6 3 7 2 16 -1 19 -3 4 -6 -2 -5 -13z"/>
<path d="M1730 1930 c8 -5 20 -10 25 -10 6 0 3 5 -5 10 -8 5 -19 10 -25 10 -5
0 -3 -5 5 -10z"/>
<path d="M1840 1870 c0 -5 5 -10 11 -10 5 0 7 5 4 10 -3 6 -8 10 -11 10 -2 0
-4 -4 -4 -10z"/>
<path d="M1900 1846 c0 -2 7 -7 16 -10 8 -3 12 -2 9 4 -6 10 -25 14 -25 6z"/>
</g>
</svg>
