<?xml version="1.0" standalone="no"?>
<!DOCTYPE svg PUBLIC "-//W3C//DTD SVG 20010904//EN"
 "http://www.w3.org/TR/2001/REC-SVG-20010904/DTD/svg10.dtd">
<svg version="1.0" xmlns="http://www.w3.org/2000/svg"
 width="256.000000pt" height="256.000000pt" viewBox="0 0 256.000000 256.000000"
 preserveAspectRatio="xMidYMid meet">

<g transform="translate(0.000000,256.000000) scale(0.100000,-0.100000)"
fill="#000000" stroke="none">
<path d="M988 2230 c-98 -29 -148 -107 -148 -232 l0 -78 80 0 80 0 0 68 c0 40
5 73 12 80 17 17 519 17 536 0 7 -7 12 -40 12 -80 l0 -68 38 -2 c20 0 46 0 57
1 20 2 20 2 0 -13 -13 -9 -22 -11 -26 -4 -4 7 -9 6 -13 -1 -4 -6 -12 -9 -17
-6 -5 4 -9 0 -9 -7 0 -10 -2 -10 -9 1 -7 11 -11 10 -20 -5 -8 -14 -11 -15 -11
-4 0 13 -2 13 -9 1 -5 -8 -17 -15 -28 -16 -32 -3 -63 -16 -63 -27 0 -7 -5 -6
-14 1 -11 9 -16 9 -22 0 -4 -8 -3 -9 4 -5 7 4 12 2 12 -5 0 -6 -8 -9 -19 -6
-10 2 -26 0 -35 -5 -11 -6 -22 -6 -30 1 -10 9 -15 7 -20 -5 -4 -10 -13 -14
-26 -11 -11 3 -23 1 -26 -4 -3 -5 -9 -7 -13 -4 -5 2 -17 -2 -27 -10 -26 -19
-45 -19 -37 1 5 14 3 15 -15 5 -12 -7 -22 -14 -22 -17 0 -3 4 -2 10 1 6 4 7
-1 3 -11 -4 -11 -8 -13 -11 -6 -2 7 -10 12 -18 12 -9 0 -12 -4 -9 -10 3 -5 0
-7 -8 -4 -8 3 -19 -2 -26 -10 -14 -17 -44 -10 -35 8 3 6 -1 3 -9 -6 -8 -10
-17 -15 -20 -11 -4 3 -7 1 -7 -7 0 -10 -3 -10 -15 0 -13 11 -14 10 -10 -1 4
-10 -2 -15 -15 -16 -11 -1 -18 2 -15 8 10 14 -11 11 -24 -5 -7 -8 -21 -12 -31
-9 -11 3 -20 1 -20 -5 0 -12 -18 -11 -39 2 -9 6 -12 5 -8 -1 3 -5 -17 -15 -46
-23 -29 -7 -55 -17 -58 -22 -3 -5 -12 -10 -20 -12 -8 -1 -29 -10 -48 -20 -24
-13 -36 -15 -44 -7 -8 8 -7 11 3 11 7 0 11 2 8 5 -9 9 -68 -26 -62 -37 4 -7 2
-8 -5 -4 -6 4 -19 0 -28 -10 -12 -11 -18 -13 -21 -5 -3 9 -7 9 -18 0 -12 -10
-13 -8 -9 7 5 14 3 14 -7 -3 -9 -16 -17 -20 -28 -13 -9 5 -19 5 -27 -2 -8 -6
-16 -8 -20 -4 -3 3 -15 -2 -26 -11 -11 -10 -17 -12 -13 -5 4 6 3 12 -3 12 -5
0 -12 -6 -14 -12 -4 -10 -6 -10 -6 1 -1 8 -8 4 -21 -10 -10 -13 -19 -18 -20
-11 0 6 -10 12 -22 12 -19 0 -20 -2 -8 -10 16 -11 13 -12 -43 -12 -30 0 -41
-5 -47 -22 -8 -19 -9 -19 -9 -2 -1 15 -4 16 -16 6 -13 -11 -15 -84 -15 -544 0
-594 -1 -583 70 -618 33 -17 104 -18 1055 -18 796 0 1025 3 1045 13 13 7 35
28 47 47 l24 34 -3 710 c-3 659 -4 713 -21 737 -35 52 -47 54 -363 54 l-294 0
0 74 c0 40 -5 91 -12 113 -15 50 -79 115 -126 128 -44 12 -554 12 -594 0z
m-172 -569 c-10 -11 -24 -17 -32 -14 -17 6 -19 16 -2 11 7 -3 19 1 26 9 21 20
27 15 8 -6z m618 -437 c12 -30 7 -279 -6 -292 -17 -17 -279 -17 -296 0 -17 17
-17 279 0 296 8 8 57 12 154 12 120 0 143 -2 148 -16z"/>
</g>
</svg>
