<?xml version="1.0" standalone="no"?>
<!DOCTYPE svg PUBLIC "-//W3C//DTD SVG 20010904//EN"
 "http://www.w3.org/TR/2001/REC-SVG-20010904/DTD/svg10.dtd">
<svg version="1.0" xmlns="http://www.w3.org/2000/svg"
 width="256.000000pt" height="256.000000pt" viewBox="0 0 256.000000 256.000000"
 preserveAspectRatio="xMidYMid meet">

<g transform="translate(0.000000,256.000000) scale(0.100000,-0.100000)"
fill="#000000" stroke="none">
<path d="M948 2065 c-22 -12 -228 -283 -228 -300 0 -3 252 -5 560 -5 308 0
560 2 560 5 0 9 -206 269 -230 290 -21 19 -38 20 -329 22 -255 2 -310 0 -333
-12z"/>
<path d="M433 1823 c-4 -10 -12 -22 -20 -26 -7 -4 -13 -15 -13 -22 0 -12 22
-15 120 -15 98 0 120 3 120 15 0 7 -6 18 -13 22 -8 4 -16 16 -20 26 -5 14 -19
17 -87 17 -68 0 -82 -3 -87 -17z"/>
<path d="M160 1100 l0 -460 437 0 436 0 -45 30 c-176 117 -265 350 -213 555
32 125 115 243 214 307 l45 28 -437 0 -437 0 0 -460z"/>
<path d="M1161 1545 c-214 -60 -355 -260 -338 -480 14 -182 136 -341 309 -402
79 -27 234 -24 310 6 125 49 231 158 275 283 25 73 25 223 0 296 -44 125 -151
236 -275 282 -75 29 -207 36 -281 15z"/>
<path d="M1571 1532 c112 -72 202 -217 222 -357 28 -194 -62 -399 -220 -504
l-46 -31 436 0 437 0 0 460 0 460 -437 0 -437 0 45 -28z m490 -121 c20 -20 29
-39 29 -61 0 -43 -47 -90 -90 -90 -43 0 -90 47 -90 90 0 22 9 41 29 61 20 20
39 29 61 29 22 0 41 -9 61 -29z"/>
</g>
</svg>
