<?xml version="1.0" standalone="no"?>
<!DOCTYPE svg PUBLIC "-//W3C//DTD SVG 20010904//EN"
 "http://www.w3.org/TR/2001/REC-SVG-20010904/DTD/svg10.dtd">
<svg version="1.0" xmlns="http://www.w3.org/2000/svg"
 width="256.000000pt" height="256.000000pt" viewBox="0 0 256.000000 256.000000"
 preserveAspectRatio="xMidYMid meet">

<g transform="translate(0.000000,256.000000) scale(0.100000,-0.100000)"
fill="#000000" stroke="none">
<path d="M204 2228 c-12 -5 -27 -21 -33 -34 -16 -35 -16 -1473 0 -1507 6 -14
22 -30 36 -36 34 -16 2112 -16 2146 0 14 6 30 22 36 36 16 34 16 1472 0 1506
-6 14 -22 30 -36 36 -33 15 -2118 14 -2149 -1z m2140 -41 c15 -11 17 -35 14
-272 -3 -247 -4 -260 -22 -263 -22 -5 -48 -27 -40 -35 3 -3 -3 -3 -14 0 -13 3
-27 -3 -39 -17 -26 -31 -81 -63 -94 -54 -7 4 -9 3 -6 -3 6 -10 -10 -19 -52
-28 -7 -2 -19 -9 -25 -16 -8 -9 -8 -10 3 -4 10 6 12 4 7 -4 -5 -7 -14 -10 -22
-7 -8 3 -14 -1 -14 -10 0 -10 -6 -13 -18 -10 -12 4 -28 -2 -44 -17 -14 -13
-30 -21 -36 -19 -7 2 -12 -5 -12 -15 0 -15 -2 -16 -10 -3 -7 11 -10 11 -10 2
0 -7 -13 -18 -30 -23 -16 -6 -30 -15 -30 -20 0 -5 -5 -9 -11 -9 -7 0 -32 -17
-58 -37 -25 -21 -42 -32 -37 -25 14 24 -31 2 -66 -31 -11 -10 -26 -16 -34 -13
-8 3 -13 2 -10 -3 6 -9 -30 -31 -57 -35 -9 -1 -20 -6 -24 -11 -4 -4 -2 -5 6 0
9 5 12 3 9 -6 -3 -8 -11 -13 -17 -11 -6 1 -11 -4 -11 -10 0 -9 -4 -8 -10 2 -6
10 -10 11 -10 2 0 -6 -3 -11 -7 -10 -5 1 -19 -4 -32 -11 -19 -10 -21 -15 -10
-22 9 -7 5 -8 -13 -3 -20 4 -30 1 -39 -15 -10 -15 -16 -17 -26 -9 -10 8 -13 6
-13 -6 0 -9 -7 -16 -15 -16 -8 0 -15 -5 -15 -11 0 -6 -6 -9 -14 -6 -8 3 -17
-1 -20 -9 -3 -8 -11 -13 -18 -12 -7 2 -12 -3 -10 -11 2 -9 -4 -12 -18 -8 -11
3 -18 1 -15 -3 8 -13 -34 -33 -56 -27 -11 3 -16 1 -13 -5 8 -13 -27 -37 -43
-31 -8 3 -13 0 -11 -8 2 -7 -3 -13 -10 -14 -7 0 -16 -6 -21 -13 -5 -8 -11 -13
-15 -13 -24 3 -40 0 -29 -7 8 -5 3 -11 -13 -19 -13 -6 -22 -7 -18 -2 3 5 -2 6
-10 3 -9 -3 -16 -10 -16 -16 0 -5 -4 -7 -9 -4 -5 3 -11 -1 -15 -9 -3 -8 -10
-15 -16 -15 -6 0 -8 6 -5 13 4 6 1 5 -7 -4 -24 -28 -67 -51 -85 -45 -15 5 -15
4 1 -9 19 -14 19 -15 -8 -15 -15 0 -25 -4 -21 -9 3 -6 -4 -8 -16 -6 -15 3 -19
0 -15 -11 3 -9 2 -12 -4 -9 -6 4 -28 -7 -49 -24 -21 -17 -48 -31 -60 -31 -12
0 -21 -4 -21 -9 0 -6 -91 -10 -219 -11 -188 0 -221 2 -235 15 -14 15 -16 91
-16 749 0 556 3 735 12 744 18 18 2107 17 2132 -1z"/>
<path d="M742 323 l3 -38 538 -3 537 -2 0 40 0 40 -541 0 -540 0 3 -37z"/>
</g>
</svg>
