<?xml version="1.0" standalone="no"?>
<!DOCTYPE svg PUBLIC "-//W3C//DTD SVG 20010904//EN"
 "http://www.w3.org/TR/2001/REC-SVG-20010904/DTD/svg10.dtd">
<svg version="1.0" xmlns="http://www.w3.org/2000/svg"
 width="256.000000pt" height="256.000000pt" viewBox="0 0 256.000000 256.000000"
 preserveAspectRatio="xMidYMid meet">

<g transform="translate(0.000000,256.000000) scale(0.100000,-0.100000)"
fill="#000000" stroke="none">
<path d="M1852 1913 c-12 -2 -37 -20 -56 -39 -32 -33 -36 -34 -107 -34 -85 0
-114 -12 -146 -59 -21 -31 -23 -45 -23 -175 0 -97 -4 -146 -12 -154 -8 -8 -45
-12 -100 -12 -81 0 -88 -2 -88 -20 0 -19 -7 -20 -259 -20 -143 0 -262 4 -265
9 -3 4 -23 4 -45 -2 -22 -6 -38 -14 -36 -17 3 -4 -7 -5 -20 -2 -16 3 -25 0
-25 -8 0 -7 -7 -10 -16 -6 -8 3 -31 -1 -50 -9 -20 -8 -38 -14 -42 -13 -4 1
-14 -1 -22 -5 -8 -3 -35 -8 -60 -12 -84 -12 -93 -14 -102 -23 -6 -6 -17 -8
-26 -5 -21 9 -10 -33 29 -115 74 -153 264 -272 434 -272 63 0 168 26 232 57
118 58 240 217 259 338 l6 45 97 0 c108 0 135 10 168 59 21 31 23 45 23 175 0
97 4 146 12 154 7 7 41 12 81 12 67 0 72 -2 103 -34 41 -43 79 -50 241 -44
127 4 157 14 183 63 28 52 11 119 -39 152 -21 15 -51 18 -166 20 -77 0 -150
-1 -163 -4z m217 -62 c-16 -16 -29 -36 -29 -45 0 -27 22 -64 44 -74 16 -8 -13
-11 -111 -11 -120 -1 -135 1 -153 19 -13 13 -20 33 -20 60 0 71 19 80 169 80
l129 0 -29 -29z"/>
<path d="M1853 1553 c-13 -2 -36 -17 -52 -33 -48 -49 -48 -111 0 -160 37 -36
81 -43 236 -38 127 4 157 14 183 63 28 52 11 119 -39 152 -21 15 -51 18 -166
20 -77 0 -150 -1 -162 -4z m216 -62 c-16 -16 -29 -36 -29 -45 0 -27 22 -64 44
-74 16 -8 -13 -11 -111 -11 -120 -1 -135 1 -153 19 -13 13 -20 33 -20 60 0 71
19 80 169 80 l129 0 -29 -29z"/>
<path d="M1853 1193 c-13 -2 -36 -17 -52 -33 -48 -49 -48 -111 0 -160 37 -36
81 -43 236 -38 127 4 157 14 183 63 28 52 11 119 -39 152 -21 15 -51 18 -166
20 -77 0 -150 -1 -162 -4z m327 -53 c13 -13 20 -33 20 -60 0 -27 -7 -47 -20
-60 -18 -18 -33 -20 -152 -19 -101 0 -128 3 -111 11 12 6 27 23 34 39 15 38
-3 84 -40 98 -19 7 10 10 112 10 124 1 139 -1 157 -19z"/>
<path d="M1229 771 c-32 -32 -35 -47 -18 -85 16 -35 61 -52 98 -36 63 26 62
117 -1 139 -43 15 -46 15 -79 -18z"/>
<path d="M1400 720 l0 -40 410 0 410 0 12 26 c24 53 15 54 -429 54 l-403 0 0
-40z"/>
<path d="M2523 624 c-7 -3 -10 -11 -7 -19 3 -7 1 -16 -5 -20 -7 -3 -8 0 -5 9
9 23 -21 30 -59 15 -17 -8 -35 -13 -38 -12 -3 1 -6 -17 -8 -39 -4 -80 1 -78
-209 -79 -103 -1 -193 -1 -200 0 -8 1 -21 -4 -30 -11 -13 -11 -14 -11 -8 0 6
10 -3 13 -42 11 -37 -2 -49 -6 -45 -16 3 -7 10 -10 16 -6 6 3 7 1 3 -5 -5 -8
-18 -5 -42 9 -20 11 -32 14 -28 8 4 -7 1 -10 -7 -7 -8 3 -20 -2 -27 -11 -8 -9
-11 -11 -8 -5 3 7 0 14 -8 17 -9 4 -12 0 -9 -12 3 -13 -1 -18 -19 -17 -13 1
-26 6 -30 11 -5 6 -8 5 -8 -2 0 -7 -11 -13 -25 -13 -17 0 -25 -5 -25 -17 0
-15 2 -16 10 -3 5 8 10 10 10 4 0 -6 -7 -17 -15 -24 -12 -10 -15 -10 -15 4 0
12 -5 14 -25 6 -18 -7 -25 -6 -25 3 0 6 -9 1 -20 -13 -11 -14 -18 -18 -14 -9
7 21 -15 36 -26 19 -5 -7 -15 -10 -25 -6 -11 4 -25 0 -36 -10 -11 -10 -19 -13
-19 -8 0 5 -5 2 -10 -6 -7 -11 -10 -11 -10 -2 0 7 -4 11 -10 7 -14 -8 -1 -35
15 -29 7 3 15 2 18 -3 3 -4 -6 -9 -19 -9 -14 -1 -24 4 -24 12 0 7 -9 18 -19
23 -16 9 -18 8 -14 -8 3 -10 -1 -22 -8 -26 -7 -5 -10 -4 -6 2 12 19 -19 36
-42 24 -11 -6 -32 -12 -48 -12 -27 -2 -27 -2 -3 -6 14 -3 30 -9 37 -14 7 -7
17 -3 28 13 l17 23 -7 -23 -7 -23 569 3 c522 3 570 4 594 21 44 30 54 61 54
175 0 102 -4 117 -32 106z m-83 -44 c0 -5 -5 -10 -11 -10 -5 0 -7 5 -4 10 3 6
8 10 11 10 2 0 4 -4 4 -10z m-594 -142 c4 -6 3 -8 -4 -4 -5 3 -12 0 -15 -6 -3
-10 -8 -10 -18 1 -8 8 -9 11 -2 7 6 -3 14 -2 18 4 8 13 12 13 21 -2z m-120
-21 c8 3 14 1 14 -5 0 -5 -10 -8 -22 -7 -30 3 -30 3 -22 17 6 9 9 9 11 1 3 -7
11 -9 19 -6z m-226 -37 c0 -5 -2 -10 -4 -10 -3 0 -8 5 -11 10 -3 6 -1 10 4 10
6 0 11 -4 11 -10z"/>
<path d="M1243 323 c9 -2 23 -2 30 0 6 3 -1 5 -18 5 -16 0 -22 -2 -12 -5z"/>
</g>
</svg>
