<?xml version="1.0" standalone="no"?>
<!DOCTYPE svg PUBLIC "-//W3C//DTD SVG 20010904//EN"
 "http://www.w3.org/TR/2001/REC-SVG-20010904/DTD/svg10.dtd">
<svg version="1.0" xmlns="http://www.w3.org/2000/svg"
 width="256.000000pt" height="256.000000pt" viewBox="0 0 256.000000 256.000000"
 preserveAspectRatio="xMidYMid meet">

<g transform="translate(0.000000,256.000000) scale(0.100000,-0.100000)"
fill="#000000" stroke="none">
<path d="M418 2082 l-138 -46 0 -681 0 -680 615 -205 614 -205 151 50 150 49
0 48 c0 26 4 48 8 48 4 0 37 -10 72 -21 l63 -22 104 34 103 33 0 366 0 365
-285 95 -284 94 -101 -32 -100 -33 0 -108 0 -107 119 -39 c66 -21 118 -42 116
-45 -2 -4 -31 -15 -65 -25 l-60 -18 0 -169 c0 -92 -3 -168 -7 -168 -4 0 -65
19 -135 42 l-128 42 0 172 0 171 53 15 c33 9 53 21 55 31 2 11 -3 17 -14 17
-17 0 -17 1 -1 13 16 11 17 31 15 180 l-3 168 -227 76 -228 77 0 186 0 186
-143 47 c-78 26 -152 47 -162 46 -11 0 -82 -22 -157 -47z m492 -520 l285 -97
3 -167 c1 -93 0 -168 -4 -168 -4 0 -139 43 -300 96 l-294 96 0 169 c0 129 3
169 13 168 6 0 140 -44 297 -97z m-243 -293 c32 -12 61 -24 64 -28 3 -3 -25
-32 -62 -64 l-69 -58 0 86 c0 47 2 85 5 85 2 0 30 -10 62 -21z"/>
<path d="M1772 1953 c-24 -8 -40 -19 -35 -23 6 -5 413 -312 431 -325 1 -1 -23
-55 -54 -119 -30 -65 -54 -120 -51 -122 2 -2 28 4 58 14 l54 18 57 115 c31 63
57 119 57 124 0 16 -434 335 -455 334 -10 0 -39 -7 -62 -16z"/>
</g>
</svg>
