<?xml version="1.0" standalone="no"?>
<!DOCTYPE svg PUBLIC "-//W3C//DTD SVG 20010904//EN"
 "http://www.w3.org/TR/2001/REC-SVG-20010904/DTD/svg10.dtd">
<svg version="1.0" xmlns="http://www.w3.org/2000/svg"
 width="256.000000pt" height="256.000000pt" viewBox="0 0 256.000000 256.000000"
 preserveAspectRatio="xMidYMid meet">

<g transform="translate(0.000000,256.000000) scale(0.100000,-0.100000)"
fill="#000000" stroke="none">
<path d="M230 2203 c-62 -32 -70 -62 -70 -278 1 -173 2 -188 16 -163 28 52 33
53 429 58 408 6 384 2 492 77 l62 43 574 0 574 0 34 -23 c18 -12 40 -34 47
-47 14 -25 14 -25 7 5 -3 17 -13 41 -21 53 -34 51 -40 52 -651 52 l-568 0 -45
58 c-74 94 -112 132 -154 155 -39 21 -54 22 -366 25 -295 2 -328 1 -360 -15z"/>
<path d="M1331 1165 l-1 -180 110 110 c61 60 110 111 110 113 0 5 -19 -7 -90
-57 -35 -25 -61 -40 -56 -33 5 8 0 12 -14 12 -27 0 -40 35 -50 135 -6 67 -7
50 -9 -100z"/>
<path d="M1222 1243 c-1 -34 -11 -81 -22 -107 -22 -52 -26 -52 -100 -4 -39 26
-34 18 40 -56 l85 -87 3 81 c2 45 1 116 -1 158 -3 73 -3 74 -5 15z"/>
<path d="M2383 1178 c2 -12 -4 -14 -45 -17 -18 -1 -20 -3 -8 -10 8 -6 18 -7
24 -4 5 3 6 1 2 -5 -4 -8 -15 -8 -31 -2 -16 6 -25 6 -25 0 0 -6 -6 -10 -12
-10 -7 -1 -28 -14 -47 -30 -27 -23 -38 -27 -53 -19 -10 5 -18 6 -17 2 3 -20
-2 -34 -11 -28 -5 3 -10 0 -10 -7 0 -10 -2 -10 -9 1 -6 9 -10 10 -12 2 -3 -7
-12 -13 -20 -14 -9 -2 -24 -11 -33 -20 -10 -9 -22 -15 -27 -12 -5 4 -9 1 -9
-4 0 -6 -5 -11 -11 -11 -6 0 -24 -9 -40 -21 -16 -11 -29 -15 -29 -9 0 6 -5 8
-10 5 -6 -4 -7 -12 -3 -18 4 -7 -1 -6 -11 2 -15 12 -17 12 -14 0 2 -8 -2 -13
-9 -12 -7 2 -10 -3 -7 -11 4 -11 0 -13 -17 -9 -17 5 -20 3 -14 -8 7 -12 6 -12
-9 0 -16 13 -17 13 -14 -5 2 -14 -4 -20 -25 -22 -16 -2 -31 -10 -33 -17 -3 -8
-12 -11 -19 -9 -7 3 -16 0 -20 -5 -3 -6 -11 -9 -16 -6 -5 4 -9 -1 -9 -10 0 -9
-4 -13 -10 -10 -5 3 -28 8 -51 11 -23 3 -60 8 -83 12 -22 4 -53 7 -68 7 -15
-1 -24 3 -22 7 3 5 -2 11 -10 14 -14 5 -14 8 -1 21 8 8 15 21 15 29 0 8 7 14
16 14 8 0 13 4 9 9 -3 5 5 20 17 33 47 49 90 110 99 140 11 39 5 48 -12 16
-12 -22 -308 -315 -335 -331 -20 -12 -29 -5 -176 133 -73 69 -117 106 -98 83
112 -132 127 -159 104 -191 -15 -21 -46 -32 -113 -36 -49 -4 -106 -45 -113
-80 -9 -44 68 -131 123 -141 18 -3 38 -10 44 -16 5 -5 17 -9 27 -9 21 0 23
-16 4 -35 -11 -12 -88 -14 -422 -15 -458 0 -461 0 -497 70 l-19 35 6 -39 c6
-42 27 -71 68 -92 38 -20 2059 -21 2098 -1 13 7 35 28 47 46 23 34 23 37 23
352 0 206 -4 319 -10 319 -5 0 -9 -5 -7 -12z m-745 -430 c7 -7 12 -24 12 -38
0 -14 -5 -31 -12 -38 -17 -17 -699 -17 -716 0 -15 15 -15 61 0 76 17 17 699
17 716 0z"/>
</g>
</svg>
