<?xml version="1.0" standalone="no"?>
<!DOCTYPE svg PUBLIC "-//W3C//DTD SVG 20010904//EN"
 "http://www.w3.org/TR/2001/REC-SVG-20010904/DTD/svg10.dtd">
<svg version="1.0" xmlns="http://www.w3.org/2000/svg"
 width="256.000000pt" height="256.000000pt" viewBox="0 0 256.000000 256.000000"
 preserveAspectRatio="xMidYMid meet">

<g transform="translate(0.000000,256.000000) scale(0.100000,-0.100000)"
fill="#000000" stroke="none">
<path d="M487 2006 c-21 -8 -64 -36 -95 -63 -31 -27 -88 -75 -127 -107 -102
-84 -105 -89 -105 -157 l0 -59 1120 0 1120 0 0 59 c0 72 3 68 -173 216 -87 73
-140 110 -165 116 -20 5 -374 8 -787 8 -606 0 -757 -2 -788 -13z m1216 -136
l71 -50 -529 0 -529 0 70 50 69 49 388 1 389 0 71 -50z m501 -146 c9 -8 16
-19 16 -24 0 -5 -7 -16 -16 -24 -8 -9 -19 -16 -24 -16 -5 0 -16 7 -24 16 -9 8
-16 19 -16 24 0 5 7 16 16 24 8 9 19 16 24 16 5 0 16 -7 24 -16z"/>
<path d="M672 1347 c-21 -22 -22 -31 -22 -245 l0 -222 -245 0 -245 0 0 -60 c0
-51 4 -65 25 -85 23 -24 29 -25 156 -25 127 0 132 -1 116 -18 -20 -22 -24
-141 -5 -160 9 -9 138 -12 520 -12 l508 0 0 -244 c0 -242 0 -245 22 -260 20
-14 86 -16 525 -16 l502 0 15 22 c14 20 16 86 16 521 l0 498 -25 24 c-56 51
-78 55 -292 54 -109 -1 -304 -4 -435 -8 -130 -3 -234 -3 -231 2 2 4 78 7 169
7 l164 0 0 103 c0 95 -2 105 -23 125 l-23 22 -585 0 -586 0 -21 -23z m1281
-274 c-78 -2 -208 -2 -290 0 -81 1 -17 3 142 3 160 0 226 -2 148 -3z m195 0
c-10 -2 -26 -2 -35 0 -10 3 -2 5 17 5 19 0 27 -2 18 -5z m-661 -70 c-3 -10 -5
-4 -5 12 0 17 2 24 5 18 2 -7 2 -21 0 -30z m-7 -183 l0 -90 -451 0 -452 0 48
53 c26 28 66 69 89 89 l41 38 363 0 362 0 0 -90z m677 58 c70 -26 155 -104
189 -175 36 -73 45 -195 20 -271 -38 -113 -124 -198 -237 -233 -177 -55 -352
21 -440 191 -17 34 -24 66 -27 135 -5 115 18 181 89 260 105 114 255 149 406
93z"/>
<path d="M1900 838 c-75 -29 -161 -115 -184 -184 -65 -196 50 -398 247 -434
317 -59 514 340 274 556 -91 82 -222 106 -337 62z m155 -178 c26 0 75 -52 85
-90 18 -66 -22 -132 -91 -150 -119 -32 -206 124 -115 209 25 24 73 42 94 35 8
-2 20 -4 27 -4z"/>
</g>
</svg>
