<?xml version="1.0" standalone="no"?>
<!DOCTYPE svg PUBLIC "-//W3C//DTD SVG 20010904//EN"
 "http://www.w3.org/TR/2001/REC-SVG-20010904/DTD/svg10.dtd">
<svg version="1.0" xmlns="http://www.w3.org/2000/svg"
 width="256.000000pt" height="256.000000pt" viewBox="0 0 256.000000 256.000000"
 preserveAspectRatio="xMidYMid meet">

<g transform="translate(0.000000,256.000000) scale(0.100000,-0.100000)"
fill="#000000" stroke="none">
<path d="M580 2166 l0 -215 -176 59 c-129 43 -181 57 -197 50 -21 -8 -21 -8 6
-19 16 -6 31 -11 35 -11 4 0 23 -8 42 -18 19 -10 70 -31 112 -47 42 -16 74
-33 71 -38 -5 -9 -41 -5 -75 8 -32 13 -20 -25 12 -39 27 -11 28 -14 14 -28
-14 -13 -1 -20 130 -68 l146 -53 0 -503 0 -502 -240 80 -240 80 0 356 0 355
-25 -23 -24 -23 -4 144 c-1 79 -4 -102 -5 -402 -2 -462 0 -548 12 -558 8 -7
137 -52 286 -101 262 -86 273 -89 306 -75 l34 14 0 300 c0 166 3 301 7 301 5
0 64 -19 132 -41 l124 -42 -63 -23 c-66 -24 -80 -36 -80 -69 0 -18 41 -34 318
-126 l317 -106 3 -301 c1 -166 5 -302 8 -302 5 0 699 482 836 580 l37 27 -105
72 -104 72 0 474 c0 261 -4 475 -9 475 -4 0 -21 -5 -37 -10 -25 -9 -127 22
-809 250 -429 143 -783 260 -787 260 -5 0 -8 -96 -8 -214z m1410 -1081 c217
-152 401 -282 408 -289 11 -11 -62 -66 -401 -303 l-414 -290 -7 135 c-3 74 -6
337 -6 585 0 355 3 448 13 444 6 -2 190 -129 407 -282z"/>
</g>
</svg>
