<?xml version="1.0" standalone="no"?>
<!DOCTYPE svg PUBLIC "-//W3C//DTD SVG 20010904//EN"
 "http://www.w3.org/TR/2001/REC-SVG-20010904/DTD/svg10.dtd">
<svg version="1.0" xmlns="http://www.w3.org/2000/svg"
 width="256.000000pt" height="256.000000pt" viewBox="0 0 256.000000 256.000000"
 preserveAspectRatio="xMidYMid meet">

<g transform="translate(0.000000,256.000000) scale(0.100000,-0.100000)"
fill="#000000" stroke="none">
<path d="M62 2225 c-64 -28 -62 7 -62 -945 0 -956 -3 -917 64 -945 49 -20
1210 -23 1204 -2 -4 9 -134 13 -600 15 l-595 2 -21 23 -22 23 2 870 3 869
1245 0 1245 0 6 -635 c3 -411 9 -647 16 -670 8 -26 11 139 12 638 1 749 3 730
-63 757 -52 22 -2384 22 -2434 0z m2238 -35 c0 -13 -7 -20 -20 -20 -13 0 -20
7 -20 20 0 13 7 20 20 20 13 0 20 -7 20 -20z m80 0 c0 -13 -7 -20 -20 -20 -13
0 -20 7 -20 20 0 13 7 20 20 20 13 0 20 -7 20 -20z m80 0 c0 -13 -7 -20 -20
-20 -13 0 -20 7 -20 20 0 13 7 20 20 20 13 0 20 -7 20 -20z"/>
<path d="M776 1924 c-14 -14 -16 -89 -16 -683 0 -505 3 -670 12 -679 9 -9 69
-12 209 -12 l197 0 -5 103 c-7 133 13 229 74 356 94 196 288 338 516 376 l37
6 0 262 c0 191 -3 266 -12 275 -9 9 -135 12 -504 12 -434 0 -494 -2 -508 -16z"/>
</g>
</svg>
